<svg xmlns="http://www.w3.org/2000/svg" viewBox="0 0 84.7 79.43"><defs><style>.cls-1{fill:#de6a6a;}.cls-1,.cls-2,.cls-3,.cls-5,.cls-6{stroke:#283328;stroke-linecap:round;stroke-linejoin:round;stroke-width:2px;}.cls-2{fill:#a64a45;}.cls-3{fill:#6a6a6a;}.cls-4{fill:#283328;}.cls-5{fill:#fff;}.cls-6{fill:none;}</style></defs><g id="레이어_2" data-name="레이어 2"><g id="레이어_1-2" data-name="레이어 1"><rect class="cls-1" x="1.3" y="45.77" width="82.4" height="32.66"/><line class="cls-1" x1="1" y1="60.93" x2="82.31" y2="60.93"/><path class="cls-2" d="M79.2,53a2.66,2.66,0,0,1-2.66,2.66H69.2A2.66,2.66,0,0,1,66.54,53h0a2.67,2.67,0,0,1,2.66-2.67h7.34A2.67,2.67,0,0,1,79.2,53Z"/><path class="cls-2" d="M58.87,53a2.67,2.67,0,0,1-2.67,2.66H48.87A2.67,2.67,0,0,1,46.2,53h0a2.68,2.68,0,0,1,2.67-2.67H56.2A2.68,2.68,0,0,1,58.87,53Z"/><path class="cls-2" d="M38.54,53a2.67,2.67,0,0,1-2.67,2.66H28.54A2.66,2.66,0,0,1,25.87,53h0a2.67,2.67,0,0,1,2.67-2.67h7.33A2.68,2.68,0,0,1,38.54,53Z"/><path class="cls-2" d="M18.2,53a2.66,2.66,0,0,1-2.66,2.66H8.2A2.66,2.66,0,0,1,5.54,53h0A2.67,2.67,0,0,1,8.2,50.29h7.34A2.67,2.67,0,0,1,18.2,53Z"/><path class="cls-3" d="M66.52,36.65S79.63,39.07,80.23,40c.8,1.19-.57,5.72-.57,5.72H60.56"/><path class="cls-3" d="M71.74,25.18c0,.68-.86,12.62-1.71,15.17S54.18,49.22,53,49.9s2.9,10.23,3.07,11.93-4.77,2.9-6,2.73S36.79,48.54,36.45,47s-31-1-31-1S1.19,20.07,19.94,17.68s25.9,7.18,27.26,8,5.61-4.62,5.61-4.62Z"/><path class="cls-3" d="M70.8,32.58c.36-.49,5.87-9.17,5.74-10.39S73.73,2.26,72.26,1.64s-4,7.22-4.89,7-11.49,0-11.49,0-6-6.84-7.7-7.58-1.73,10.68-1.73,10.68c-.09.25-3.25,8.75-2.75,10.75C44,23.74,47,28.75,47.86,29"/><path class="cls-4" d="M59.53,16.94c0,.82-1.63,1.48-1.85,1.48H57.4c-.21,0-1.85-.66-1.85-1.48h0A1.48,1.48,0,0,1,57,15.46h1a1.48,1.48,0,0,1,1.48,1.48Z"/><line class="cls-5" x1="50.75" y1="16.01" x2="50.75" y2="14.18"/><line class="cls-5" x1="64.92" y1="16.01" x2="64.92" y2="14.18"/><path class="cls-3" d="M16.2,32s11.25-2,12,9.5c0,0,5.5-3,5,4.25"/><path class="cls-3" d="M5.17,41.71C4.46,53.28,10.55,65.92,20.94,71.3c3.43,1.77,6.46-3.4,3-5.18C16.34,62.17,11.19,53,11,44.22"/><path class="cls-6" d="M51.7,39.92a48.31,48.31,0,0,0,1,10.5"/></g></g></svg>