<svg xmlns="http://www.w3.org/2000/svg" viewBox="0 0 68.89 80.2"><defs><style>.cls-1{fill:#b2b2b2;}.cls-1,.cls-2,.cls-4{stroke:#283328;stroke-linecap:round;stroke-linejoin:round;stroke-width:2px;}.cls-2{fill:#3b9eff;}.cls-3{fill:#fff;}.cls-4,.cls-5{fill:#6a6a6a;}</style></defs><g id="레이어_2" data-name="레이어 2"><g id="레이어_1-2" data-name="레이어 1"><path class="cls-1" d="M67.89,51.72a2,2,0,0,1-2,2.05H3a2,2,0,0,1-2-2.05V3.05A2,2,0,0,1,3,1H65.9a2,2,0,0,1,2,2.05Z"/><path class="cls-2" d="M59.7,47a1.63,1.63,0,0,1-1.62,1.65h-51A1.63,1.63,0,0,1,5.47,47V7.71A1.63,1.63,0,0,1,7.09,6.05h51A1.63,1.63,0,0,1,59.7,7.71Z"/><polygon class="cls-3" points="40.98 11.67 36.38 18.26 35.98 15.77 32.52 17.94 31.71 16.66 35.2 14.46 33.05 12.97 40.98 11.67"/><path class="cls-4" d="M48.28,75.65h9.17s1.86-2.29-2.78-4.43"/><path class="cls-4" d="M29.84,28.51s.74-8.84,1.66-8.65,5.89,4.69,5.89,4.69l6.26-.09s4.06-5.52,5.25-5,1.48,8,1.48,8,2.89,6.19,3.07,7.48-3.44,5.6-3.9,6,3.32,14.46,3.68,15.65,6.36.37,4.61,10S46.6,79.26,43,79.17s-16.21.92-19.43-8.84,1.19-13.08,3.68-13.45l1.84-.28a59.65,59.65,0,0,0,2.12-11.51,28.6,28.6,0,0,0-.13-3.35S27.61,37,27,36,28.26,30.8,29.84,28.51Z"/><path class="cls-4" d="M38.33,73.24c-3,.37-5.41-1-8-2.37C28.24,69.8,28,67.35,27.18,65.5a27.48,27.48,0,0,0-7.44-9.93A19.71,19.71,0,0,0,12.89,52c-1.62-.49-5.49-1.39-6.54.49a3.85,3.85,0,0,0,.21,3.79c.9,1,2.34,1.12,3.62,1.24,3.05.3,5.35,2.18,7.49,4.26,3.16,3,3.56,6.92,5.68,10.46C26.6,77.66,34.53,80,40.44,79A4,4,0,0,0,41,78.8"/><path class="cls-5" d="M66.28,29.5a1.65,1.65,0,1,1-1.64-1.65A1.65,1.65,0,0,1,66.28,29.5Z"/></g></g></svg>