<svg xmlns="http://www.w3.org/2000/svg" viewBox="0 0 57.18 84.24"><defs><style>.cls-1{fill:#6a6a6a;stroke:#283328;stroke-linecap:round;stroke-linejoin:round;stroke-width:2px;}</style></defs><g id="레이어_2" data-name="레이어 2"><g id="레이어_1-2" data-name="레이어 1"><path class="cls-1" d="M19.75,31.34S18.39,20.71,19,19.16,25.88.26,27.54,1s2.15,8.53,2.15,8.53l4.06.37s5-9.1,6.78-8.33,1,9.87,1,9.87,10.17,9.46,9.71,12c-1.5,8.5-7.48,11.36-7.54,12-.39,4.46.37,4.62-.58,10.48S36.94,64,38.14,67.5c1.12,3.23,2,8.43,1.27,9.71a.69.69,0,0,1-.19.22c-1.08.71-4.91.83-4.91.83S16.49,85,9.55,81-1.22,67.62,2.37,55.65,19,34.89,19.75,31.34Z"/><line class="cls-1" x1="41.62" y1="15.51" x2="41.58" y2="11.46"/><path class="cls-1" d="M28.33,9.76s2.07.2,5.42.16"/><path class="cls-1" d="M9.21,80.51c4.22,4.09,14.27,2.76,22.16,1.31,5.24-1,10.14-1.74,15.42-.87,2.39.39,5.12,1.49,7.52,1.51,1.69,0,2.12-1.88,1.75-3.33a3.42,3.42,0,0,0-.28-.76,4.91,4.91,0,0,0-3.88-2.5,54.34,54.34,0,0,0-14.6-1.34c-7.67.6-14.65,3-22,1.6"/></g></g></svg>