<svg xmlns="http://www.w3.org/2000/svg" viewBox="0 0 91.35 91.19"><defs><style>.cls-1{fill:#6a6a6a;}.cls-1,.cls-2{stroke:#283328;stroke-linecap:round;stroke-linejoin:round;stroke-width:2px;}.cls-2{fill:#fec544;}</style></defs><g id="레이어_2" data-name="레이어 2"><g id="레이어_1-2" data-name="레이어 1"><path class="cls-1" d="M25.73,51.49S29.07,20.79,46,19.54C70,17.78,71.88,40,67.74,46.85l-4.15,4.88Z"/><path class="cls-1" d="M58.23,28.56S49,22.22,43.35,31s3.42,15.36,9,17.07"/><path class="cls-1" d="M39.7,51s-2-5.12,7.31-5.37"/><path class="cls-1" d="M64.81,44.66s2,4.39-1.22,7.07"/><path class="cls-1" d="M67.4,29.79C71.51,11.33,48-.37,33.07,1.13c-3.82.38-3.85,6.38,0,6,10.1-1,28.52,6.26,27.64,18.67"/><path class="cls-2" d="M5.57,76.58a2.43,2.43,0,0,1-3.27,1h0a2.42,2.42,0,0,1-1-3.26l11-21.11a2.43,2.43,0,0,1,3.27-1h0a2.42,2.42,0,0,1,1,3.26Z"/><path class="cls-2" d="M85.78,76.08a2.43,2.43,0,0,0,3.27,1h0a2.42,2.42,0,0,0,1-3.26l-11-21.11a2.42,2.42,0,0,0-3.26-1h0a2.41,2.41,0,0,0-1,3.26Z"/><rect class="cls-2" x="13.27" y="51.42" width="64.79" height="38.78"/><path class="cls-1" d="M57,63.43a3.5,3.5,0,0,1-3.5,3.5h-15a3.5,3.5,0,0,1-3.5-3.5h0a3.5,3.5,0,0,1,3.5-3.5h15a3.5,3.5,0,0,1,3.5,3.5Z"/></g></g></svg>