<svg xmlns="http://www.w3.org/2000/svg" viewBox="0 0 63.5 54.92"><defs><style>.cls-1{fill:#6a6a6a;}.cls-1,.cls-4{stroke:#283328;stroke-linecap:round;stroke-linejoin:round;stroke-width:2px;}.cls-2{fill:#5f5f5f;}.cls-3{fill:#283328;}.cls-4{fill:none;}</style></defs><g id="레이어_2" data-name="레이어 2"><g id="레이어_1-2" data-name="레이어 1"><path class="cls-1" d="M62.5,40.24c0,13.53-13.77,13.68-30.75,13.68S1,53.77,1,40.24s13.77-29.5,30.75-29.5S62.5,26.71,62.5,40.24Z"/><path class="cls-2" d="M46.13,38.38c-6.59,4-17.1,3.71-24.31,2-3.77-.89-5.36,4.89-1.6,5.78,8.8,2.08,20.92,2.22,28.94-2.61C52.46,41.56,49.45,36.38,46.13,38.38Z"/><path class="cls-1" d="M48.27,38.35s4.19-4.49,5.36-7.08-4-15.95-4-15.95,1.17-12.47.23-13.41-10.35,8-10.35,8l-13.66.47S19.1,2.76,15.34,1.11s-.75,15.16-.75,15.16-3.87,14.42-2.39,16.6,5.89,6.19,7.28,6.68"/><path class="cls-3" d="M37,32.25c0,1-2,1.94-2.28,2h-.35c-.27,0-2.37-.76-2.41-1.79h0a1.87,1.87,0,0,1,1.81-1.93l1.3,0A1.87,1.87,0,0,1,37,32.25Z"/><path class="cls-4" d="M25.44,27.75a14.61,14.61,0,0,1,3.18,1.16"/><path class="cls-4" d="M39.78,29.39c1-.51,2-1.1,3-1.64"/><path class="cls-4" d="M17.43,53.12c-1.6-3.87,7.85-8.46,9.58-2.77a9.38,9.38,0,0,1,.38,3.08"/><path class="cls-4" d="M48,53.12c1.61-3.87-7.84-8.46-9.57-2.77a9.38,9.38,0,0,0-.38,3.08"/></g></g></svg>