<svg xmlns="http://www.w3.org/2000/svg" viewBox="0 0 73.58 73.49"><defs><style>.cls-1{fill:#6a6a6a;}.cls-1,.cls-2{stroke:#283328;stroke-linecap:round;stroke-linejoin:round;stroke-width:2px;}.cls-2{fill:none;}.cls-3{fill:#283328;}</style></defs><g id="레이어_2" data-name="레이어 2"><g id="레이어_1-2" data-name="레이어 1"><path class="cls-1" d="M18.55,61.88s-7.06.29-7.8-1.44S1.08,39.94,1,37.44c0-1.3,6.69,2.07,7.06,2.19s8.19-5.19,8.19-5.19-3.35-13.62-1.5-13.25,10,7.25,10,7.25S39,14.84,58.8,18.91,71.37,41.22,70.88,47.63s-6.17,22.42-7.77,22.92-6,1.72-7.39-.37,2.34-15.9,2-15.65-9.24,2.95-9.24,2.95l-3.08,6.41c-.13.5-8.75,8-10.23,8.38s-6.41.25-6.66-.24,2.84-4.19,3.82-5.67,2-5.92,2-5.92S23.05,70.32,22.5,70.69s-4.25.08-5.54-.75,2.52-8,2.52-8Z"/><path class="cls-2" d="M35.38,34.44s-13.55,8.38-1.11,26"/><path class="cls-2" d="M48.45,57.48S60.89,40.72,61.39,40.23"/><path class="cls-1" d="M68.77,24.43C70.19,16.56,65.1,8.16,58.4,4.24c-4.35-2.55-9.48-3-14.4-3.18-6.29-.28-12.35.41-18.11,3-4.87,2.23-.64,9.4,4.2,7.19,6.12-2.8,14.67-2.68,21.11-1a12.6,12.6,0,0,1,7,4.65A13.36,13.36,0,0,1,60.8,22"/><path class="cls-2" d="M24.91,34.07s-4.81,4.56-.13,19.35l-5,7.91"/><line class="cls-1" x1="11.43" y1="52.76" x2="12.75" y2="55.19"/><line class="cls-1" x1="21.82" y1="45.57" x2="23.14" y2="48.01"/><path class="cls-3" d="M20.54,53.86c.53.78-.61,2.47-.82,2.61l-.26.18c-.2.14-2.2.57-2.73-.21h0a1.71,1.71,0,0,1,.46-2.38l1-.66a1.7,1.7,0,0,1,2.37.46Z"/><path class="cls-3" d="M65.25,26.65a.79.79,0,0,0,0,1.58A.79.79,0,0,0,65.25,26.65Z"/></g></g></svg>