<svg xmlns="http://www.w3.org/2000/svg" viewBox="0 0 92.25 54.77"><defs><style>.cls-1{fill:#ad5703;}.cls-1,.cls-2{stroke:#283328;stroke-linecap:round;stroke-linejoin:round;stroke-width:2px;}.cls-2{fill:#fec544;}.cls-3{fill:#283328;}</style></defs><g id="레이어_2" data-name="레이어 2"><g id="레이어_1-2" data-name="레이어 1"><path class="cls-1" d="M90.64,7a2.18,2.18,0,0,0-3.06,0,40.37,40.37,0,0,1-3.32,3.35,2.16,2.16,0,1,0,3,3.07A40.37,40.37,0,0,0,90.62,10,2.19,2.19,0,0,0,90.64,7Z"/><path class="cls-2" d="M59.7,29s4.65,6.32,6.06,7.82c.37.39.38-2,3.17-.12s-6.28,8.8-6.28,8.8L49,34.18"/><path class="cls-2" d="M58.43,5.25s-10.8,3.67-9.69,4.82,6.6,3.61,6.6,3.61S62.36,6,58.43,5.25Z"/><path class="cls-2" d="M23.74,20.27c1.83,2.67,5.77-.41,4-3.06-4-5.88-13.76-4.64-15.61,2.43C10.5,25.72,16,32,22,32.38c3.2.17,3.86-4.78.63-5a6.21,6.21,0,0,1-5.8-5.69C16.39,17.76,22,17.74,23.74,20.27Z"/><path class="cls-2" d="M31.69,40.84s-9.35,7-12.25,7.88c0,0,2.45,1,.95,4.3L11,51.83s-4.06-3.51,1.84-7.7,15-8.07,15-8.07"/><path class="cls-2" d="M1,53c.43-.05,1-6.63,2.9-8.53S17.18,27.67,17.18,27.67,31,22.57,33.93,21.54s16.56-5.28,17.44-6.35,7.24-5.26,7.24-5.26-7.12-7.48-6.33-8.67,16.33,2,16.33,2,4.23-.72,6.67.34,5.31,5.72,5.31,5.72,6.25.81,6.94,2.19,0,8.12-.58,8.42A111.84,111.84,0,0,1,63.1,30l-4.63,4.78,5.41,6.79a6.47,6.47,0,0,1,5.54,2S64,50,63.79,49.88,48,42,48,42s-14.68,3.28-23.22-.37c0,0-8.89,3.93-12.78,7A8.68,8.68,0,0,1,9.13,49.7a7.25,7.25,0,0,1,.77,4.07Z"/><path class="cls-1" d="M71.82,29.18a8.43,8.43,0,0,1,1.28-4c-.65-.06-1.3-.11-2-.12a2.19,2.19,0,0,1-2-2.33,2.22,2.22,0,0,1,2.33-2,39,39,0,0,1,4.58.42h.06c.68-.82,1.34-1.63,1.89-2.43,1.58-2.33,5.22.08,3.63,2.4-1,1.41-2.06,2.71-3.1,4.06-.91,1.19-2.29,2.74-2.34,4.32C76.08,32.3,71.73,32,71.82,29.18Z"/><line class="cls-2" x1="73.8" y1="7.2" x2="75.23" y2="9.9"/><polygon class="cls-3" points="83.2 9.4 87.28 15.46 87.36 11.03 83.2 9.4"/></g></g></svg>