<svg xmlns="http://www.w3.org/2000/svg" viewBox="0 0 57.26 77.1"><defs><style>.cls-1{fill:#fec544;}.cls-1,.cls-3{stroke:#283328;stroke-linecap:round;stroke-linejoin:round;stroke-width:2px;}.cls-2{fill:#283328;}.cls-3{fill:none;}</style></defs><g id="레이어_2" data-name="레이어 2"><g id="레이어_1-2" data-name="레이어 1"><path class="cls-1" d="M17.43,53.5c-4.08-.87-7.54-3.29-11.3-5C3.2,47.21,1.75,52,4.66,53.3c3.78,1.7,7.18,4.1,11.29,5C19.08,58.94,20.58,54.17,17.43,53.5Z"/><path class="cls-1" d="M31.47,55.44,28.57,65s2.5.38,2.15,4.3l-8.92.12V58.77"/><path class="cls-1" d="M17.57,53.67C14.37,51,12.44,47.25,9.9,44c-2-2.54-5.49,1-3.53,3.54,2.55,3.26,4.44,7,7.67,9.66C16.49,59.25,20.05,55.74,17.57,53.67Z"/><path class="cls-1" d="M40.1,29.12s8.82-10.11,10-11.39S50,10.57,50,10.57s-2.18-2-3.58-.89-1.67,4.09-1.67,4.09L34.6,22.21"/><path class="cls-1" d="M14.73,11.88S.5,19.87,1,20.86s4.33,6.06,14,1.64"/><path class="cls-1" d="M23.26,28.84s2.81,8.45.76,11.27c-.54.75-7.85,8.19-8.36,12.92s.77,22.9.77,22.9,6.78.38,7.29,0A3.24,3.24,0,0,0,24,72.86a4.36,4.36,0,0,0-1.67-1l3-11.25s15.35-9.35,20.21-16.64S46.28,25,44.11,24s-9.72-7.26-9.72-7.26l-.26-.29a19,19,0,0,0,1.41-3.2c2-3.73,1.74-6.1-2.38-11C29.48-2.08,25,6.17,23.88,6.44s-5.47.93-6.75,1.25-3,2.39-5.24,5c-.44.5-1,3.39-1,4.15-.17,4.49,5.32,6.86,9.55,9.84Z"/><path class="cls-1" d="M43.14,32.1S54.57,20,55.72,18.69s.1-7.37.1-7.37-2.17-2-3.58-.89-1.66,4.09-1.66,4.09L40.47,23"/><path class="cls-1" d="M11.72,15.94S2.16,27.89,3,28.61s7.74,3.09,15-4.67"/><path class="cls-2" d="M26.63,2.21c-.92.24,9.72,2.19,7.9,1.83,0,0-4.59-6.29-7-1.75"/><line class="cls-3" x1="18.51" y1="11.92" x2="20.8" y2="12.13"/></g></g></svg>