<svg xmlns="http://www.w3.org/2000/svg" viewBox="0 0 64.91 58.41"><defs><style>.cls-1{fill:#fec544;}.cls-1,.cls-2,.cls-4{stroke:#283328;stroke-linecap:round;stroke-linejoin:round;stroke-width:2px;}.cls-2{fill:#fff;}.cls-3{fill:#283328;}.cls-4{fill:none;}</style></defs><g id="레이어_2" data-name="레이어 2"><g id="레이어_1-2" data-name="레이어 1"><path class="cls-1" d="M33.07,2.5s9.61-2.46,12-1.08-5.63,6.24-5.63,6.24"/><path class="cls-1" d="M61.49,47.24c-3.84,0-7.77.51-11.58-.16-3.16-.55-4.5,4.27-1.33,4.82,4.29.75,8.58.38,12.91.34C64.72,52.22,64.72,47.22,61.49,47.24Z"/><path class="cls-1" d="M20.89,36l.55,11.36s-3.28,2.4-1.47,4.74c.37.47,7-.24,7-.24l.37-11.6"/><path class="cls-1" d="M44,28.24s7.25,3.25,9,9.25-.25,13.25-3,14-14.5.25-14.5.25l-2.25-5s-8.75-2-11.5-14"/><path class="cls-2" d="M5.74,21.24l14.5,13.5S32.74,41.24,45,28l5.75-12.75"/><path class="cls-2" d="M29,3.49S9.24,2.49,3.24,9.24,3,26.74,24,26.74,57.24,14,48.24,11.49"/><path class="cls-1" d="M27.87,2a13.07,13.07,0,0,1,7.41,1.39c2.48,1.39,4.31,4.85,7,5.79.51.17,9.95-1.59,12.51-.32s-7.58,9-9,10.41A22.34,22.34,0,0,0,43,22.74s-14.5,6-23.75,3.25l1.5-1c.12-.33-8.66-9.45-9.17-12.54-.23-1.44,2-7.56,4.16-8.08a25.11,25.11,0,0,1,7.71-.67C25.32,3.31,25.91,2.1,27.87,2Z"/><path class="cls-3" d="M16.1,6.48a1,1,0,0,0-.69.56,3.41,3.41,0,0,0,.46,3.37,5.44,5.44,0,0,0,3.68,1.38c1.89,0,1.37-1.51.41-2.49-.65-.67-1.33-1.31-2-2A2.4,2.4,0,0,0,16.1,6.48Z"/><path class="cls-1" d="M30.49,40.24l.75,12s-4.46,2.54-2,5c.5.5,9.5-.25,9.5-.25l.5-12.25"/><path class="cls-1" d="M46.62,43.59s-8.47-11.41-8.57-12.15S42.53,24,44.12,24.5s1.38,6.12,1.38,6.12,6,4.44,6.23,6.42"/><path class="cls-4" d="M32.7,12.69c1.38.39,2.65.87,4.09,1.17"/><path class="cls-1" d="M44.74,15.49s-.5,5.75-1.75,7.25"/></g></g></svg>