<svg xmlns="http://www.w3.org/2000/svg" viewBox="0 0 85.08 85.08"><defs><style>.cls-1{fill:#474747;}</style></defs><g id="레이어_2" data-name="레이어 2"><g id="레이어_1-2" data-name="레이어 1"><path class="cls-1" d="M61,85.08a12.9,12.9,0,0,1-9.19-3.8l-48-48h0a13,13,0,0,1,0-18.39L14.91,3.8a13,13,0,0,1,18.38,0l48,48a13,13,0,0,1,0,18.39L70.17,81.28A12.89,12.89,0,0,1,61,85.08ZM5.21,31.88l48,48a11,11,0,0,0,15.56,0L79.87,68.76a11,11,0,0,0,0-15.55l-48-48a11,11,0,0,0-15.56,0L5.21,16.32a11,11,0,0,0,0,15.56Z"/><path class="cls-1" d="M43.41,62.54a3,3,0,0,1-2.12-.88L23.43,43.79h0a3,3,0,0,1,0-4.24L39.21,23.76a3.09,3.09,0,0,1,4.25,0L61.32,41.63a3,3,0,0,1,0,4.24L45.54,61.66A3,3,0,0,1,43.41,62.54ZM24.84,42.38,42.71,60.24a1,1,0,0,0,1.41,0L59.91,44.46a1,1,0,0,0,0-1.42L42,25.18a1,1,0,0,0-1.41,0L24.84,41a1,1,0,0,0,0,1.42Z"/><circle class="cls-1" cx="23.22" cy="13.39" r="2.55"/><path class="cls-1" d="M16.24,22.75a2.55,2.55,0,1,1-2.55-2.55A2.55,2.55,0,0,1,16.24,22.75Z"/><path class="cls-1" d="M33.49,20.62a2.55,2.55,0,1,1-2.55-2.55A2.55,2.55,0,0,1,33.49,20.62Z"/><path class="cls-1" d="M24,30a2.55,2.55,0,1,1-2.55-2.55A2.55,2.55,0,0,1,24,30Z"/><circle class="cls-1" cx="64.91" cy="55.71" r="2.55"/><path class="cls-1" d="M57.92,65.07a2.55,2.55,0,1,1-2.54-2.55A2.55,2.55,0,0,1,57.92,65.07Z"/><circle class="cls-1" cx="72.63" cy="62.94" r="2.55"/><circle class="cls-1" cx="63.1" cy="72.3" r="2.55"/></g></g></svg>