<svg xmlns="http://www.w3.org/2000/svg" viewBox="0 0 86.01 67.89"><defs><style>.cls-1{fill:#474747;}</style></defs><g id="레이어_2" data-name="레이어 2"><g id="레이어_1-2" data-name="레이어 1"><path class="cls-1" d="M71.8,67.89H14.2c-4.27,0-7.75-3.88-7.75-8.66L5,34.11A1,1,0,0,1,7,34l1.5,25.17c0,3.73,2.58,6.72,5.75,6.72H71.8c3.18,0,5.76-3,5.76-6.66L79.06,34a1,1,0,0,1,1.06-.94,1,1,0,0,1,.94,1l-1.5,25.18C79.56,64,76.08,67.89,71.8,67.89Z"/><path class="cls-1" d="M81.86,34.53H4.15A4.15,4.15,0,0,1,0,30.38v-1a4.16,4.16,0,0,1,4.15-4.16H81.86A4.17,4.17,0,0,1,86,29.41v1A4.16,4.16,0,0,1,81.86,34.53ZM4.15,27.25A2.16,2.16,0,0,0,2,29.41v1a2.15,2.15,0,0,0,2.15,2.15H81.86A2.15,2.15,0,0,0,84,30.38v-1a2.16,2.16,0,0,0-2.15-2.16Z"/><path class="cls-1" d="M79.41,27.15a1,1,0,0,1-1-1c0-3.36-2.36-6.09-5.26-6.09a4.73,4.73,0,0,0-2.85,1,1,1,0,0,1-.94.15,1,1,0,0,1-.64-.71,6.56,6.56,0,0,0-6.08-5.32,6.24,6.24,0,0,0-5.51,3.72,1,1,0,0,1-.85.56,1,1,0,0,1-.9-.48,5,5,0,0,0-5.9-2.3,1,1,0,0,1-1.21-.43A6.17,6.17,0,0,0,43,13c-3.1,0-5.72,2.56-6.23,6.1a1,1,0,0,1-1.46.74,3.8,3.8,0,0,0-4.28.47,1,1,0,0,1-1.63-.69c-.31-3.78-3-6.62-6.3-6.62-3.49,0-6.33,3.28-6.33,7.3a1,1,0,0,1-.56.93,1,1,0,0,1-1.05-.08,4.77,4.77,0,0,0-2.95-1.06C9.31,20.06,7,22.79,7,26.15a1,1,0,0,1-2,0c0-4.46,3.25-8.09,7.26-8.09a6.62,6.62,0,0,1,2.7.58C15.62,14.26,19,11,23.1,11c3.86,0,7.1,2.87,8,6.9A5.74,5.74,0,0,1,35,17.56,8.45,8.45,0,0,1,43,11a8,8,0,0,1,6.57,3.58,6.81,6.81,0,0,1,6.56,2.1,8.06,8.06,0,0,1,6.51-3.49,8.36,8.36,0,0,1,7.62,5.57,6.62,6.62,0,0,1,2.89-.67c4,0,7.26,3.63,7.26,8.09A1,1,0,0,1,79.41,27.15Z"/><path class="cls-1" d="M10.1,11.55A3.58,3.58,0,1,1,13.68,8,3.58,3.58,0,0,1,10.1,11.55Zm0-5.15A1.58,1.58,0,1,0,11.68,8,1.57,1.57,0,0,0,10.1,6.4Z"/><path class="cls-1" d="M65.26,10.68A5.34,5.34,0,1,1,70.6,5.34,5.35,5.35,0,0,1,65.26,10.68Zm0-8.68A3.34,3.34,0,1,0,68.6,5.34,3.35,3.35,0,0,0,65.26,2Z"/></g></g></svg>