<svg xmlns="http://www.w3.org/2000/svg" viewBox="0 0 77.29 77.35"><defs><style>.cls-1{fill:#474747;}</style></defs><g id="레이어_2" data-name="레이어 2"><g id="레이어_1-2" data-name="레이어 1"><path class="cls-1" d="M55.57,77.35a10.17,10.17,0,0,1-7.18-3.08c-4-4-4.44-10-4.19-15.87L18.51,32.72C13,33,7,32.87,3.66,29.53A11.18,11.18,0,0,1,0,21.6a10,10,0,0,1,3.06-6.93c3.3-3.3,6.39-3.44,9-2.71-.67-2.51-.58-5.68,2.74-9a9.74,9.74,0,0,1,7.16-3,10.22,10.22,0,0,1,7,3.08c4,4.06,4.44,10,4.19,15.87L58.8,44.64c5.49-.25,11.52-.16,14.85,3.18,5.34,5.34,4.15,11.31.6,14.87-3.3,3.29-6.39,3.43-9,2.71.68,2.5.59,5.67-2.73,9A9.79,9.79,0,0,1,55.57,77.35ZM18.9,30.7a1,1,0,0,1,.71.29L45.92,57.3a1,1,0,0,1,.29.76c-.26,5.55,0,11.19,3.59,14.79A7.84,7.84,0,0,0,61.13,73c3.31-3.32,2.7-6.23,1.66-8.64l-.1-.19A1,1,0,0,1,62.86,63,1,1,0,0,1,64,62.78c2.62,1.2,5.49,1.84,8.84-1.51,2.77-2.77,4.06-7.38-.59-12-2.56-2.56-7.36-2.88-13.79-2.58a1,1,0,0,1-.75-.29L31.39,20.05a1,1,0,0,1-.3-.76c.27-5.55,0-11.19-3.58-14.79A8.26,8.26,0,0,0,21.88,2a7.85,7.85,0,0,0-5.7,2.37c-3.31,3.32-2.7,6.23-1.66,8.64l.1.19a1,1,0,0,1-1.3,1.37c-2.62-1.19-5.49-1.84-8.84,1.51A7.94,7.94,0,0,0,2,21.62a9.27,9.27,0,0,0,3.07,6.5C7.63,30.68,12.43,31,18.85,30.7Z"/></g></g></svg>