<svg xmlns="http://www.w3.org/2000/svg" viewBox="0 0 89.22 76.54"><defs><style>.cls-1{fill:#f2c94c;}</style></defs><g id="레이어_2" data-name="레이어 2"><g id="레이어_1-2" data-name="레이어 1"><path class="cls-1" d="M45,76.54a34.91,34.91,0,0,1-33.44-44.9L10.77,1a1,1,0,0,1,.48-.88,1,1,0,0,1,1,0l17.83,9.92a35,35,0,0,1,29.69,0L77.15.13a1,1,0,0,1,1,0,1,1,0,0,1,.49.87l-.25,30.62A34.92,34.92,0,0,1,45,76.54ZM12.81,2.72l.7,29a1.06,1.06,0,0,1,0,.31,32.9,32.9,0,1,0,63,0,1.45,1.45,0,0,1,0-.3l.24-29L60.31,12a1,1,0,0,1-.93,0,32.93,32.93,0,0,0-28.88,0,1,1,0,0,1-.93,0Z"/><path class="cls-1" d="M34.16,37.12A3.08,3.08,0,1,1,31.08,34,3.08,3.08,0,0,1,34.16,37.12Z"/><path class="cls-1" d="M61.9,37.12A3.08,3.08,0,1,1,58.82,34,3.08,3.08,0,0,1,61.9,37.12Z"/><path class="cls-1" d="M38,60.55a7.94,7.94,0,0,1-7.93-7.94,1,1,0,0,1,2,0,5.93,5.93,0,1,0,11.86,0,1,1,0,0,1,2,0A7.94,7.94,0,0,1,38,60.55Z"/><path class="cls-1" d="M51.89,60.55A8,8,0,0,1,44,52.61a1,1,0,0,1,2,0,5.94,5.94,0,1,0,11.87,0,1,1,0,0,1,2,0A7.94,7.94,0,0,1,51.89,60.55Z"/><path class="cls-1" d="M45,53.61a3.75,3.75,0,0,1-2.37-.89l-2-1.84a.75.75,0,0,1-.15-.16A3.07,3.07,0,0,1,43,45.9h4a3.07,3.07,0,0,1,2.51,4.82,1.14,1.14,0,0,1-.15.16l-2,1.79A3.36,3.36,0,0,1,45,53.61Zm-2.95-4.12,1.88,1.71a1.45,1.45,0,0,0,2,0h0l1.88-1.71a1.06,1.06,0,0,0,0-1,1,1,0,0,0-.94-.57H43a1,1,0,0,0-.94.57A1.06,1.06,0,0,0,42.06,49.49Z"/><path class="cls-1" d="M17.63,20.55a1,1,0,0,1-1-.94l-.54-10a1,1,0,0,1,.46-.9,1,1,0,0,1,1,0l8.67,4.69a1,1,0,0,1,.53.83,1,1,0,0,1-.45.88l-8.13,5.36A1,1,0,0,1,17.63,20.55Zm.55-9.31.35,6.52,5.28-3.48Z"/><path class="cls-1" d="M72.27,20.55a1,1,0,0,1-.55-.16L63.59,15a1,1,0,0,1-.45-.88,1,1,0,0,1,.53-.83l8.67-4.69a1,1,0,0,1,1,0,1,1,0,0,1,.46.9l-.54,10a1,1,0,0,1-.55.84A1,1,0,0,1,72.27,20.55Zm-6.18-6.27,5.28,3.48.35-6.52Z"/><path class="cls-1" d="M22.57,47.31h-.12L.89,44.9a1,1,0,1,1,.22-2l21.57,2.39a1,1,0,0,1-.11,2Z"/><path class="cls-1" d="M1,55.27a1,1,0,0,1-.11-2l21.56-2.4a1,1,0,0,1,.23,2L1.11,55.26Z"/><path class="cls-1" d="M66.66,47.31a1,1,0,0,1-.11-2l21.56-2.39a1,1,0,1,1,.22,2L66.77,47.3Z"/><path class="cls-1" d="M88.22,55.27h-.11L66.55,52.87a1,1,0,1,1,.22-2l21.56,2.4a1,1,0,0,1-.11,2Z"/></g></g></svg>