<svg xmlns="http://www.w3.org/2000/svg" viewBox="0 0 95.59 78.81"><defs><style>.cls-1{fill:#474747;}</style></defs><g id="레이어_2" data-name="레이어 2"><g id="레이어_1-2" data-name="레이어 1"><path class="cls-1" d="M78,78.81H60.54a1,1,0,0,1-1-1V62.58a11.75,11.75,0,0,0-23.5,0V77.84a1,1,0,0,1-1,1H17.59a1,1,0,0,1-1-1V39.24a1,1,0,0,1,2,0V76.87H34V62.58a13.76,13.76,0,0,1,27.5,0V76.87H77V39.24a1,1,0,0,1,2,0v38.6A1,1,0,0,1,78,78.81Z"/><path class="cls-1" d="M88.71,48.66a1,1,0,0,1-.65-.24L47.79,14.8,7.53,48.42a1.05,1.05,0,0,1-.78.23,1,1,0,0,1-.69-.41L.18,40.18a1,1,0,0,1,.17-1.31L47.14.23a1,1,0,0,1,1.3,0l3,2.52L95.23,38.87a1,1,0,0,1,.17,1.31l-5.87,8.06a1,1,0,0,1-.7.41ZM47.79,12.55a1,1,0,0,1,.65.23L88.53,46.25l4.71-6.47L47.79,2.25l-2.38,2L2.35,39.78l4.71,6.47L47.14,12.78A1,1,0,0,1,47.79,12.55Z"/><path class="cls-1" d="M63.42,44.68H32.17a1,1,0,0,1-1-1V33.32a1,1,0,0,1,1-1H63.42a1,1,0,0,1,1,1V43.7A1,1,0,0,1,63.42,44.68Zm-30.25-2H62.42V34.3H33.17Z"/></g></g></svg>