<svg xmlns="http://www.w3.org/2000/svg" viewBox="0 0 69.97 78.85"><defs><style>.cls-1{fill:#474747;}</style></defs><g id="레이어_2" data-name="레이어 2"><g id="레이어_1-2" data-name="레이어 1"><path class="cls-1" d="M67,78.85H3a3,3,0,0,1-3-3V3A3,3,0,0,1,3,0H67a3,3,0,0,1,3,3V75.85A3,3,0,0,1,67,78.85ZM3,2A1,1,0,0,0,2,3V75.85a1,1,0,0,0,1,1H67a1,1,0,0,0,1-1V3a1,1,0,0,0-1-1Z"/><path class="cls-1" d="M53.31,56.87H16.66a1,1,0,0,1,0-2H53.31a1,1,0,0,1,0,2Z"/><path class="cls-1" d="M53.31,24H16.66a1,1,0,0,1,0-2H53.31a1,1,0,0,1,0,2Z"/><path class="cls-1" d="M53.31,34.87H16.66a1,1,0,0,1,0-2H53.31a1,1,0,0,1,0,2Z"/><path class="cls-1" d="M53.31,44H16.66a1,1,0,0,1,0-2H53.31a1,1,0,0,1,0,2Z"/></g></g></svg>