<svg xmlns="http://www.w3.org/2000/svg" viewBox="0 0 70.89 85.01"><defs><style>.cls-1{fill:#474747;}</style></defs><g id="레이어_2" data-name="레이어 2"><g id="레이어_1-2" data-name="레이어 1"><path class="cls-1" d="M23.21,47.44c-7.43,0-13.26-2.07-17.34-6.16A21.32,21.32,0,0,1,0,27.3V10A6.47,6.47,0,0,1,4.38,3.91,1,1,0,0,1,5,5.82,4.49,4.49,0,0,0,2,10V27.3a20.22,20.22,0,0,0,2.66,9.14c3.49,6,9.73,9,18.55,9,6.87,0,12.11-1.87,15.58-5.54,5-5.26,4.6-12.47,4.6-12.54V10a.58.58,0,0,1,0-.19,3.47,3.47,0,0,0-2.39-4,1,1,0,0,1-.66-1.25,1,1,0,0,1,1.26-.66,5.42,5.42,0,0,1,3.77,6.19V27.3c0,.27.4,8.1-5.14,14C36.38,45.36,30.65,47.44,23.21,47.44Z"/><path class="cls-1" d="M42.16,85c-6.71,0-11.88-1.8-15.39-5.34a16.3,16.3,0,0,1-4.56-10.76V46.44a1,1,0,0,1,2,0V68.92a14.43,14.43,0,0,0,4,9.36C31.33,81.42,36,83,42.16,83c5.51,0,9.71-1.55,12.47-4.63,4.46-5,3.75-12.26,3.74-12.33v-.12l.05-5.51a1,1,0,0,1,1-1h0a1,1,0,0,1,1,1l-.05,5.46c.07.82.63,8.4-4.25,13.82C53,83.23,48.26,85,42.16,85Z"/><path class="cls-1" d="M59.42,60.42A11.47,11.47,0,1,1,70.89,49,11.48,11.48,0,0,1,59.42,60.42Zm0-20.94A9.47,9.47,0,1,0,68.89,49,9.48,9.48,0,0,0,59.42,39.48Z"/><path class="cls-1" d="M59.42,53.51A4.56,4.56,0,1,1,64,49,4.56,4.56,0,0,1,59.42,53.51Zm0-7.12A2.56,2.56,0,1,0,62,49,2.56,2.56,0,0,0,59.42,46.39Z"/><path class="cls-1" d="M8.22,9.08a4.54,4.54,0,1,1,4.54-4.54A4.54,4.54,0,0,1,8.22,9.08ZM8.22,2a2.54,2.54,0,1,0,2.54,2.54A2.54,2.54,0,0,0,8.22,2Z"/><path class="cls-1" d="M37.78,9.08a4.54,4.54,0,1,1,4.54-4.54A4.55,4.55,0,0,1,37.78,9.08Zm0-7.08a2.54,2.54,0,1,0,2.54,2.54A2.54,2.54,0,0,0,37.78,2Z"/></g></g></svg>