<svg width="80" height="69" viewBox="0 0 80 69" fill="none" xmlns="http://www.w3.org/2000/svg">
<path d="M40.3495 68.9999C35.4737 68.9985 30.6657 67.852 26.3087 65.6517C21.9516 63.4515 18.1661 60.2583 15.2537 56.3269C12.3414 52.3954 10.3828 47.8342 9.53404 43.007C8.68531 38.1799 8.96993 33.2201 10.3652 28.523L9.65684 0.901392C9.6528 0.742776 9.69046 0.585897 9.76604 0.446603C9.84161 0.30731 9.95241 0.190536 10.0872 0.108081C10.2235 0.0289591 10.3782 -0.0126953 10.5356 -0.0126953C10.693 -0.0126953 10.8476 0.0289591 10.9839 0.108081L26.9713 9.05086C31.1375 7.08908 35.6818 6.07219 40.2823 6.07219C44.8828 6.07219 49.427 7.08908 53.5932 9.05086L69.1771 0.117096C69.3134 0.037974 69.4681 -0.00368042 69.6255 -0.00368042C69.7829 -0.00368042 69.9375 0.037974 70.0738 0.117096C70.209 0.197658 70.3207 0.312517 70.3978 0.450166C70.4749 0.587815 70.5147 0.74342 70.5132 0.901392L70.289 28.505C71.6846 33.1994 71.971 38.1566 71.1254 42.9819C70.2799 47.8072 68.3257 52.3675 65.4184 56.2998C62.5111 60.2321 58.731 63.4278 54.3789 65.6326C50.0268 67.8374 45.2229 68.9904 40.3495 68.9999V68.9999ZM11.486 2.45195L12.1137 28.5951C12.1273 28.6878 12.1273 28.782 12.1137 28.8746C10.7855 33.3046 10.5066 37.9856 11.2993 42.5434C12.0921 47.1011 13.9344 51.4092 16.6792 55.1232C19.4239 58.8371 22.9948 61.854 27.1064 63.9325C31.2181 66.011 35.7564 67.0935 40.3585 67.0935C44.9606 67.0935 49.4989 66.011 53.6105 63.9325C57.7222 61.854 61.2931 58.8371 64.0378 55.1232C66.7825 51.4092 68.6249 47.1011 69.4176 42.5434C70.2104 37.9856 69.9315 33.3046 68.6033 28.8746C68.594 28.7847 68.594 28.6941 68.6033 28.6042L68.8185 2.46097L54.0774 10.8178C53.9488 10.8857 53.8057 10.9212 53.6604 10.9212C53.5152 10.9212 53.3721 10.8857 53.2435 10.8178C49.2108 8.83957 44.7828 7.81142 40.2957 7.81142C35.8086 7.81142 31.3806 8.83957 27.3479 10.8178C27.2193 10.8857 27.0763 10.9212 26.931 10.9212C26.7857 10.9212 26.6427 10.8857 26.5141 10.8178L11.486 2.45195Z" fill="white"/>
<path d="M30.6299 33.4633C30.6228 34.0108 30.4548 34.5441 30.1471 34.9959C29.8394 35.4478 29.4056 35.798 28.9004 36.0027C28.3952 36.2073 27.8411 36.2572 27.3077 36.146C26.7744 36.0348 26.2857 35.7676 25.903 35.3779C25.5204 34.9881 25.2609 34.4934 25.1572 33.9558C25.0535 33.4182 25.1103 32.8618 25.3203 32.3565C25.5303 31.8512 25.8843 31.4197 26.3376 31.1162C26.791 30.8127 27.3235 30.6507 27.8682 30.6506C28.2339 30.6506 28.596 30.7236 28.9334 30.8654C29.2708 31.0072 29.5769 31.2149 29.8338 31.4766C30.0907 31.7382 30.2934 32.0486 30.43 32.3896C30.5667 32.7307 30.6346 33.0956 30.6299 33.4633V33.4633Z" fill="white"/>
<path d="M55.5032 33.4633C55.4961 34.0108 55.3281 34.5441 55.0204 34.9959C54.7127 35.4478 54.2789 35.798 53.7737 36.0027C53.2685 36.2073 52.7144 36.2572 52.181 36.146C51.6477 36.0348 51.159 35.7676 50.7763 35.3779C50.3937 34.9881 50.1342 34.4934 50.0305 33.9558C49.9268 33.4182 49.9835 32.8618 50.1936 32.3565C50.4036 31.8512 50.7576 31.4197 51.2109 31.1162C51.6643 30.8127 52.1968 30.6507 52.7415 30.6506C53.1072 30.6506 53.4692 30.7236 53.8067 30.8654C54.1441 31.0072 54.4502 31.2149 54.7071 31.4766C54.964 31.7382 55.1667 32.0486 55.3033 32.3896C55.44 32.7307 55.5079 33.0956 55.5032 33.4633V33.4633Z" fill="white"/>
<path d="M34.0729 54.5852C32.1863 54.5828 30.3777 53.8276 29.0445 52.4855C27.7113 51.1434 26.9624 49.3242 26.9624 47.4274C26.9624 47.1883 27.0569 46.959 27.225 46.7899C27.3932 46.6209 27.6213 46.5259 27.8591 46.5259C28.0969 46.5259 28.3249 46.6209 28.4931 46.7899C28.6613 46.959 28.7557 47.1883 28.7557 47.4274C28.7557 48.8452 29.3159 50.2049 30.3131 51.2074C31.3103 52.21 32.6627 52.7732 34.0729 52.7732C35.4831 52.7732 36.8356 52.21 37.8327 51.2074C38.8299 50.2049 39.3901 48.8452 39.3901 47.4274C39.3901 47.1883 39.4846 46.959 39.6527 46.7899C39.8209 46.6209 40.049 46.5259 40.2868 46.5259C40.5246 46.5259 40.7527 46.6209 40.9208 46.7899C41.089 46.959 41.1834 47.1883 41.1834 47.4274C41.1834 49.3242 40.4346 51.1434 39.1014 52.4855C37.7681 53.8276 35.9596 54.5828 34.0729 54.5852V54.5852Z" fill="white"/>
<path d="M46.5275 54.5852C44.6515 54.5593 42.8602 53.7955 41.5377 52.4574C40.2152 51.1194 39.4668 49.3136 39.4529 47.4274C39.4529 47.1883 39.5473 46.959 39.7155 46.7899C39.8837 46.6209 40.1117 46.5259 40.3495 46.5259C40.5874 46.5259 40.8154 46.6209 40.9836 46.7899C41.1517 46.959 41.2462 47.1883 41.2462 47.4274C41.2168 48.1485 41.3326 48.8681 41.5868 49.543C41.8409 50.218 42.2282 50.8343 42.7252 51.355C43.2223 51.8757 43.8189 52.29 44.4793 52.573C45.1396 52.856 45.85 53.0019 46.5679 53.0019C47.2857 53.0019 47.9961 52.856 48.6565 52.573C49.3168 52.29 49.9134 51.8757 50.4105 51.355C50.9076 50.8343 51.2948 50.218 51.549 49.543C51.8032 48.8681 51.919 48.1485 51.8896 47.4274C51.8896 47.1883 51.984 46.959 52.1522 46.7899C52.3203 46.6209 52.5484 46.5259 52.7862 46.5259C53.024 46.5259 53.2521 46.6209 53.4203 46.7899C53.5884 46.959 53.6829 47.1883 53.6829 47.4274C53.6829 48.3704 53.4976 49.3041 53.1375 50.1749C52.7775 51.0457 52.2499 51.8364 51.585 52.5015C50.9201 53.1666 50.131 53.6931 49.2631 54.0507C48.3951 54.4083 47.4655 54.5899 46.5275 54.5852V54.5852Z" fill="white"/>
<path d="M40.3496 48.3286C39.5701 48.317 38.819 48.0333 38.2245 47.5263L36.4312 45.8676C36.3796 45.8264 36.3343 45.7778 36.2967 45.7233C36.0103 45.3083 35.8424 44.8225 35.811 44.3183C35.7797 43.8142 35.8862 43.3111 36.119 42.8635C36.3517 42.4159 36.7019 42.0408 37.1315 41.779C37.5612 41.5172 38.0539 41.3786 38.5563 41.3782H42.1429C42.6446 41.3802 43.1361 41.52 43.5644 41.7825C43.9928 42.045 44.3417 42.4201 44.5734 42.8675C44.8051 43.3148 44.9108 43.8172 44.8791 44.3206C44.8474 44.8239 44.6795 45.309 44.3935 45.7233C44.3534 45.7757 44.3084 45.824 44.259 45.8676L42.4657 47.4812C41.8978 48.0312 41.1381 48.3355 40.3496 48.3286V48.3286ZM37.7044 44.6145L39.3902 46.1561C39.6319 46.3875 39.953 46.5167 40.2868 46.5167C40.6207 46.5167 40.9417 46.3875 41.1835 46.1561L42.8692 44.6145C42.943 44.4759 42.9816 44.321 42.9816 44.1638C42.9816 44.0065 42.943 43.8517 42.8692 43.713C42.794 43.554 42.6741 43.4205 42.5243 43.3292C42.3745 43.2379 42.2014 43.1927 42.0263 43.1992H38.5563C38.3812 43.1927 38.2081 43.2379 38.0583 43.3292C37.9085 43.4205 37.7886 43.554 37.7134 43.713C37.6396 43.8517 37.601 44.0065 37.601 44.1638C37.601 44.321 37.6396 44.4759 37.7134 44.6145H37.7044Z" fill="white"/>
<path d="M15.8081 18.5256C15.5793 18.526 15.3591 18.4385 15.1924 18.281C15.0257 18.1234 14.9252 17.9078 14.9114 17.6782L14.4273 8.66332C14.4181 8.50344 14.4515 8.344 14.524 8.2014C14.5965 8.0588 14.7055 7.93819 14.8397 7.85198C14.976 7.77286 15.1306 7.7312 15.288 7.7312C15.4454 7.7312 15.6001 7.77286 15.7364 7.85198L23.5104 12.08C23.6471 12.1529 23.7627 12.2601 23.846 12.3912C23.9293 12.5223 23.9774 12.6729 23.9857 12.8282C23.9925 12.9842 23.9589 13.1394 23.8882 13.2785C23.8175 13.4175 23.712 13.5358 23.5822 13.6215L16.2923 18.4535C16.1407 18.5222 15.973 18.5472 15.8081 18.5256ZM16.3013 10.1327L16.6151 16.0105L21.3495 12.8733L16.3013 10.1327Z" fill="white"/>
<path d="M64.8014 18.5254C64.6265 18.5267 64.4551 18.4766 64.3082 18.3812L57.0184 13.5221C56.8885 13.4364 56.7831 13.3182 56.7123 13.1791C56.6416 13.04 56.608 12.8849 56.6149 12.7288C56.6232 12.5735 56.6713 12.4229 56.7545 12.2918C56.8378 12.1607 56.9534 12.0535 57.0901 11.9806L64.8642 7.75261C65.0005 7.67349 65.1551 7.63184 65.3125 7.63184C65.4699 7.63184 65.6245 7.67349 65.7608 7.75261C65.895 7.83883 66.004 7.95944 66.0765 8.10203C66.149 8.24463 66.1824 8.40407 66.1733 8.56395L65.6891 17.5788C65.6806 17.7376 65.6305 17.8912 65.5439 18.0242C65.4573 18.1572 65.3372 18.2648 65.1959 18.3361C65.082 18.431 64.9464 18.496 64.8014 18.5254ZM59.26 12.8731L63.9944 16.0103L64.3082 10.1325L59.26 12.8731Z" fill="white"/>
<path d="M20.2374 42.6495H20.1298L0.797824 40.4769C0.560015 40.4506 0.342337 40.3304 0.192678 40.1427C0.043019 39.9551 -0.0263627 39.7153 -0.000203677 39.4762C0.0259553 39.2371 0.145512 39.0183 0.332166 38.8678C0.518819 38.7174 0.75728 38.6476 0.995089 38.6739L20.336 40.8285C20.5739 40.8416 20.7967 40.9492 20.9556 41.1276C21.1145 41.3059 21.1965 41.5404 21.1834 41.7795C21.1703 42.0186 21.0633 42.2427 20.8859 42.4025C20.7085 42.5622 20.4752 42.6446 20.2374 42.6314V42.6495Z" fill="white"/>
<path d="M0.896552 49.8253C0.658742 49.8384 0.425478 49.7561 0.248073 49.5963C0.0706677 49.4365 -0.0363453 49.2125 -0.0494248 48.9734C-0.0625043 48.7343 0.0194212 48.4998 0.178329 48.3214C0.337237 48.143 0.56011 48.0355 0.797919 48.0223L20.1299 45.8587C20.3677 45.8312 20.6067 45.8998 20.7941 46.0495C20.9816 46.1991 21.1023 46.4175 21.1297 46.6565C21.157 46.8956 21.0888 47.1359 20.94 47.3244C20.7912 47.5129 20.5739 47.6342 20.3361 47.6617L0.995184 49.8163L0.896552 49.8253Z" fill="white"/>
<path d="M59.7713 42.6493C59.5335 42.6624 59.3002 42.58 59.1228 42.4203C58.9454 42.2605 58.8384 42.0364 58.8253 41.7973C58.8123 41.5583 58.8942 41.3237 59.0531 41.1454C59.212 40.967 59.4349 40.8594 59.6727 40.8463L79.0047 38.6917C79.2425 38.6654 79.4809 38.7352 79.6676 38.8856C79.8542 39.0361 79.9738 39.255 79.9999 39.494C80.0261 39.7331 79.9567 39.9729 79.8071 40.1605C79.6574 40.3482 79.4397 40.4684 79.2019 40.4947L59.8699 42.6402L59.7713 42.6493Z" fill="white"/>
<path d="M79.1032 49.8253H79.0046L59.6726 47.6617C59.5548 47.6487 59.4408 47.6125 59.3369 47.5551C59.2331 47.4978 59.1415 47.4204 59.0674 47.3275C58.9933 47.2346 58.9381 47.1279 58.9051 47.0136C58.872 46.8992 58.8616 46.7794 58.8746 46.661C58.8875 46.5426 58.9235 46.428 58.9805 46.3236C59.0376 46.2192 59.1145 46.1271 59.2069 46.0526C59.2993 45.9781 59.4055 45.9227 59.5192 45.8894C59.6329 45.8561 59.7521 45.8457 59.8698 45.8587L79.2018 48.0223C79.4396 48.0354 79.6625 48.143 79.8214 48.3214C79.9803 48.4997 80.0623 48.7343 80.0492 48.9734C80.0361 49.2124 79.9291 49.4365 79.7517 49.5963C79.5743 49.756 79.341 49.8384 79.1032 49.8253V49.8253Z" fill="white"/>
</svg>
