<svg xmlns="http://www.w3.org/2000/svg" viewBox="0 0 69.97 89.91"><defs><style>.cls-1{fill:#474747;}</style></defs><g id="레이어_2" data-name="레이어 2"><g id="레이어_1-2" data-name="레이어 1"><path class="cls-1" d="M67,89.91H3a3,3,0,0,1-3-3V14.06a3,3,0,0,1,3-3H67a3,3,0,0,1,3,3V86.91A3,3,0,0,1,67,89.91ZM3,13.06a1,1,0,0,0-1,1V86.91a1,1,0,0,0,1,1H67a1,1,0,0,0,1-1V14.06a1,1,0,0,0-1-1Z"/><path class="cls-1" d="M43.8,12.51a1,1,0,0,1-1-1V9.82a7.82,7.82,0,1,0-15.63,0v1.69a1,1,0,0,1-2,0V9.82a9.82,9.82,0,1,1,19.63,0v1.69A1,1,0,0,1,43.8,12.51Z"/><path class="cls-1" d="M53.31,69H16.66a1,1,0,1,1,0-2H53.31a1,1,0,0,1,0,2Z"/><path class="cls-1" d="M53.31,78.09H16.66a1,1,0,1,1,0-2H53.31a1,1,0,0,1,0,2Z"/><path class="cls-1" d="M55.81,60.17H14.16a1,1,0,0,1-1-1V21.51a1,1,0,0,1,1-1H55.81a1,1,0,0,1,1,1V59.17A1,1,0,0,1,55.81,60.17Zm-40.65-2H54.81V22.51H15.16Z"/><path class="cls-1" d="M35,56.42A14.16,14.16,0,0,1,21.4,38.32l-.28-11.77a1,1,0,0,1,.49-.88,1,1,0,0,1,1,0l6.64,3.7a14.26,14.26,0,0,1,11.45,0l6.46-3.68a1,1,0,0,1,1,0,1,1,0,0,1,.5.87l-.1,11.78a14,14,0,0,1,.57,4A14.16,14.16,0,0,1,35,56.42ZM23.16,28.25l.25,10.18a1.06,1.06,0,0,1,0,.31,12.15,12.15,0,1,0,23.23,0,.92.92,0,0,1,0-.29l.08-10.2-5.4,3.08a1,1,0,0,1-.93,0,12.26,12.26,0,0,0-10.66,0,1,1,0,0,1-.93,0Z"/><path class="cls-1" d="M30.8,40.53a1.2,1.2,0,0,1-2.39,0,1.2,1.2,0,1,1,2.39,0Z"/><path class="cls-1" d="M41.56,40.53a1.2,1.2,0,1,1-1.2-1.2A1.19,1.19,0,0,1,41.56,40.53Z"/><path class="cls-1" d="M32.3,50.22a3.69,3.69,0,0,1-3.69-3.69,1,1,0,0,1,2,0,1.69,1.69,0,0,0,3.38,0,1,1,0,0,1,2,0A3.69,3.69,0,0,1,32.3,50.22Z"/><path class="cls-1" d="M37.67,50.22A3.69,3.69,0,0,1,34,46.53a1,1,0,0,1,2,0,1.69,1.69,0,1,0,3.37,0,1,1,0,0,1,2,0A3.69,3.69,0,0,1,37.67,50.22Z"/><path class="cls-1" d="M35.64,46.27l.77-.7a.8.8,0,0,0-.66-1.25H34.22a.8.8,0,0,0-.65,1.25l.76.7A1,1,0,0,0,35.64,46.27Z"/></g></g></svg>