<svg xmlns="http://www.w3.org/2000/svg" viewBox="0 0 100.68 75.42"><defs><style>.cls-1{fill:#474747;}</style></defs><g id="레이어_2" data-name="레이어 2"><g id="레이어_1-2" data-name="레이어 1"><path class="cls-1" d="M67.16,61.74a1.11,1.11,0,0,1-.49-.12,1,1,0,0,1-.38-1.36h0s1.87-3.5,1.87-10.92c0-8.55,7.2-10.23,7.27-10.25a.92.92,0,0,1,.33,0c.08,0,7.76.88,12.11-.93A19,19,0,0,0,98.66,22.9a4.38,4.38,0,0,0-.77-3.25c-1.1-1.2-3.64-1.28-6.57-1.37-1.57-.05-3.35-.1-5.17-.33-6.62-.85-7.3-4.1-7.89-7a9.13,9.13,0,0,0-1.35-3.7C74.58,4.1,73.06,2,67.16,2H50a13.43,13.43,0,0,0-9,3.62c-3.19,3.07-4.81,7.87-4.81,14.25,0,5.73,1.35,9.7,4,11.79a8.49,8.49,0,0,0,6.64,1.5,1.09,1.09,0,0,1,.31,0s3.46.21,5.26-2.26,1.49-7.21-1-13.47a1,1,0,1,1,1.86-.75c2.84,7.05,3.1,12.24.78,15.41s-6,3.1-6.86,3.08A10.46,10.46,0,0,1,39,33.23c-3.16-2.49-4.77-7-4.77-13.36,0-7,1.83-12.25,5.45-15.72A15.27,15.27,0,0,1,50.09,0H67.16c6.91,0,9,2.82,11.35,6.09a10.78,10.78,0,0,1,1.7,4.48c.57,2.74,1,4.73,6.19,5.39,1.73.22,3.38.27,5,.32,3.39.11,6.31.19,8,2A6.22,6.22,0,0,1,100.66,23a20.79,20.79,0,0,1-12,17C84.15,41.87,77,41.22,75.72,41.08c-.9.26-5.56,1.89-5.56,8.26,0,8-2,11.74-2.12,11.89A1,1,0,0,1,67.16,61.74Z"/><path class="cls-1" d="M72.26,15.83a2.14,2.14,0,1,1-2.14-2.14A2.14,2.14,0,0,1,72.26,15.83Z"/><path class="cls-1" d="M96,25.07a7.12,7.12,0,0,1-2.51-.46c-2.75-1-2.74-4.79-2.29-6.85a1,1,0,1,1,2,.41c-.21,1-.48,4,1,4.57a5.61,5.61,0,0,0,4.9-.59,1,1,0,1,1,1.18,1.61A7.78,7.78,0,0,1,96,25.07Z"/><path class="cls-1" d="M29.9,48.44a1,1,0,0,1-.44-.11A1,1,0,0,1,29,47l8.2-16.56,1.79.88L30.8,47.88A1,1,0,0,1,29.9,48.44Z"/><path class="cls-1" d="M22,42.31a7.45,7.45,0,0,1-3.22-.77,10.09,10.09,0,0,1-5.2-11.19,6.64,6.64,0,0,1,9.64-4.48,9.71,9.71,0,0,1,4.51,4.71c2.05,4.41.7,9.4-3,11.13A6.42,6.42,0,0,1,22,42.31ZM20,27.1a4.47,4.47,0,0,0-1.87.41,4.86,4.86,0,0,0-2.6,3.34,8.05,8.05,0,0,0,4.13,8.88,4.83,4.83,0,0,0,4.22.16c2.72-1.25,3.63-5.06,2.05-8.47h0a7.72,7.72,0,0,0-3.57-3.75A5.38,5.38,0,0,0,20,27.1Z"/><path class="cls-1" d="M23.48,32.55a3.07,3.07,0,0,1-1.08,4.18c-1.37.64-3.11-.2-3.89-1.87s-.29-3.55,1.08-4.18A3.08,3.08,0,0,1,23.48,32.55Z"/><path class="cls-1" d="M9.72,53.79a10.05,10.05,0,0,1-4.24-1h0A9.71,9.71,0,0,1,.77,48.32,6.86,6.86,0,0,1,.6,42.38a6.83,6.83,0,0,1,4.65-3.7,9.73,9.73,0,0,1,6.48.69,9.76,9.76,0,0,1,4.71,4.51,6.86,6.86,0,0,1,.17,5.94A7.36,7.36,0,0,1,9.72,53.79ZM6.32,51c3.41,1.58,7.21.67,8.47-2a4.86,4.86,0,0,0-.16-4.23,7.74,7.74,0,0,0-3.74-3.57,7.73,7.73,0,0,0-5.14-.56,4.86,4.86,0,0,0-3.34,2.6,4.89,4.89,0,0,0,.16,4.23A7.72,7.72,0,0,0,6.32,51Z"/><path class="cls-1" d="M7.45,48.58a3.07,3.07,0,0,0,4.18-1.08c.64-1.37-.2-3.11-1.87-3.89s-3.55-.29-4.18,1.08A3.08,3.08,0,0,0,7.45,48.58Z"/><path class="cls-1" d="M23.92,63.85a1,1,0,0,1-1-.83c-.94-5.56-2.24-20.69-2.3-21.33a1,1,0,0,1,.91-1.09,1,1,0,0,1,1.08.92c0,.15,1.35,15.69,2.28,21.16a1,1,0,0,1-.81,1.15Z"/><path class="cls-1" d="M28.6,61.23a1,1,0,0,1-1-.86L24.86,40a1,1,0,1,1,2-.26L29.6,60.1a1,1,0,0,1-.86,1.12Z"/><path class="cls-1" d="M21.71,48.2h-.09l-5.21-.47a1,1,0,0,1-.91-1.08,1,1,0,0,1,1.09-.91l5.21.47a1,1,0,0,1-.09,2Z"/><path class="cls-1" d="M46,56.18h-.13L27.45,53.68a1,1,0,1,1,.27-2l16.09,2.18a10.49,10.49,0,0,0-5.23-3.68c-1.63-.36-5.7-.87-11.77-1.49a1,1,0,0,1,.2-2c6.24.63,10.28,1.15,12,1.53,4.62,1,7.72,6.21,7.85,6.43A1,1,0,0,1,46,56.18Z"/><path class="cls-1" d="M22.61,53h-.14l-7.84-1.06a1,1,0,1,1,.26-2L22.74,51a1,1,0,0,1,.85,1.13A1,1,0,0,1,22.61,53Z"/><path class="cls-1" d="M12.09,75.42a1,1,0,0,1-1-1c0-4.46,3.26-8.09,7.26-8.09a6.67,6.67,0,0,1,2.71.58c.71-4.39,4.11-7.68,8.19-7.68a8.49,8.49,0,0,1,8,6.9,5.82,5.82,0,0,1,3.9-.31,8.45,8.45,0,0,1,8-6.59,8.12,8.12,0,0,1,7,4.26,1,1,0,1,1-1.73,1,6.15,6.15,0,0,0-5.26-3.26c-3.1,0-5.72,2.57-6.23,6.1a1,1,0,0,1-.54.75,1,1,0,0,1-.92,0,3.81,3.81,0,0,0-4.28.48,1,1,0,0,1-1,.15,1,1,0,0,1-.61-.85c-.3-3.77-3-6.62-6.29-6.62-3.49,0-6.33,3.28-6.33,7.31a1.06,1.06,0,0,1-.56.93,1,1,0,0,1-1.06-.09,4.71,4.71,0,0,0-2.95-1c-2.9,0-5.26,2.73-5.26,6.09A1,1,0,0,1,12.09,75.42Z"/></g></g></svg>