<svg width="80" height="58" viewBox="0 0 80 58" fill="none" xmlns="http://www.w3.org/2000/svg">
<path d="M39.9903 57.6675C25.0877 57.6675 12.9602 44.5435 12.9602 28.4193C12.958 25.5511 13.3462 22.6957 14.1144 19.9297C14.1439 19.8235 14.1944 19.7241 14.2628 19.6371C14.3312 19.5502 14.4164 19.4774 14.5133 19.4229C14.6102 19.3684 14.7171 19.3333 14.8277 19.3196C14.9384 19.3059 15.0507 19.3139 15.1583 19.3431C15.2658 19.3722 15.3665 19.422 15.4545 19.4896C15.5426 19.5572 15.6163 19.6413 15.6715 19.737C15.7267 19.8327 15.7622 19.9382 15.7761 20.0475C15.7899 20.1568 15.7819 20.2677 15.7523 20.3739C15.0211 22.9945 14.6529 25.7009 14.6576 28.4193C14.6576 43.6216 26.0212 55.9914 39.9903 55.9914C53.9593 55.9914 65.3315 43.5881 65.3315 28.4193C65.3362 25.7009 64.9679 22.9945 64.2367 20.3739C64.2071 20.2677 64.199 20.1567 64.2128 20.0474C64.2266 19.9381 64.2622 19.8326 64.3173 19.7369C64.3725 19.6411 64.4463 19.5571 64.5344 19.4895C64.6225 19.4219 64.7232 19.3722 64.8308 19.3431C64.9383 19.3138 65.0507 19.3058 65.1614 19.3195C65.272 19.3331 65.3789 19.3682 65.4759 19.4227C65.5728 19.4772 65.6579 19.55 65.7264 19.637C65.7948 19.724 65.8452 19.8235 65.8746 19.9297C66.647 22.6949 67.0353 25.5508 67.0288 28.4193C67.0288 44.5435 54.9014 57.6675 39.9903 57.6675Z" fill="white"/>
<path d="M26.0297 4.56818C25.8586 4.57269 25.6894 4.53146 25.54 4.44885C25.3906 4.36624 25.2666 4.24532 25.1811 4.09887C25.1329 3.99783 25.1057 3.8883 25.1011 3.77674C25.0964 3.66517 25.1144 3.5538 25.1539 3.44918C25.1934 3.34457 25.2537 3.2488 25.3313 3.16752C25.4088 3.08624 25.502 3.02108 25.6054 2.97587C30.1274 1.01475 35.0123 0.00144407 39.9512 1.54233e-06C44.8901 -0.00144098 49.7756 1.00902 54.2988 2.96749C54.4019 3.01197 54.495 3.07624 54.5727 3.15656C54.6504 3.23688 54.7111 3.33166 54.7514 3.43537C54.7917 3.53909 54.8107 3.64967 54.8073 3.7607C54.8039 3.87173 54.7782 3.98098 54.7317 4.08211C54.6097 4.29723 54.4082 4.45747 54.1694 4.52932C53.9306 4.60116 53.6729 4.57905 53.4502 4.46762C49.1912 2.62725 44.5925 1.67718 39.9436 1.67718C35.2947 1.67718 30.6961 2.62725 26.4371 4.46762C26.31 4.52919 26.1712 4.56347 26.0297 4.56818Z" fill="white"/>
<path d="M28.2191 27.2125C29.6627 27.2125 30.833 26.0568 30.833 24.6313C30.833 23.2057 29.6627 22.05 28.2191 22.05C26.7755 22.05 25.6052 23.2057 25.6052 24.6313C25.6052 26.0568 26.7755 27.2125 28.2191 27.2125Z" fill="white"/>
<path d="M51.7611 27.2125C53.2047 27.2125 54.375 26.0568 54.375 24.6313C54.375 23.2057 53.2047 22.05 51.7611 22.05C50.3175 22.05 49.1472 23.2057 49.1472 24.6313C49.1472 26.0568 50.3175 27.2125 51.7611 27.2125Z" fill="white"/>
<path d="M34.1088 44.2672C32.3232 44.2649 30.6114 43.5629 29.3495 42.3152C28.0877 41.0676 27.3789 39.3763 27.3789 37.613C27.3789 37.3907 27.4683 37.1775 27.6275 37.0204C27.7866 36.8632 28.0025 36.7749 28.2276 36.7749C28.4527 36.7749 28.6685 36.8632 28.8277 37.0204C28.9868 37.1775 29.0762 37.3907 29.0762 37.613C29.0484 38.2833 29.158 38.9523 29.3986 39.5798C29.6391 40.2072 30.0057 40.7802 30.4761 41.2642C30.9466 41.7483 31.5113 42.1334 32.1363 42.3965C32.7613 42.6596 33.4337 42.7952 34.1131 42.7952C34.7925 42.7952 35.4649 42.6596 36.0899 42.3965C36.7149 42.1334 37.2796 41.7483 37.7501 41.2642C38.2205 40.7802 38.587 40.2072 38.8276 39.5798C39.0682 38.9523 39.1778 38.2833 39.1499 37.613C39.1499 37.3907 39.2393 37.1775 39.3985 37.0204C39.5577 36.8632 39.7735 36.7749 39.9986 36.7749C40.2237 36.7749 40.4395 36.8632 40.5987 37.0204C40.7578 37.1775 40.8473 37.3907 40.8473 37.613C40.8339 39.3737 40.1197 41.0586 38.8589 42.3036C37.5981 43.5487 35.8919 44.254 34.1088 44.2672Z" fill="white"/>
<path d="M45.8798 44.2672C44.0942 44.2649 42.3824 43.5629 41.1205 42.3152C39.8587 41.0676 39.1499 39.3763 39.1499 37.613C39.1499 37.3907 39.2393 37.1775 39.3985 37.0204C39.5576 36.8632 39.7735 36.7749 39.9986 36.7749C40.2237 36.7749 40.4395 36.8632 40.5987 37.0204C40.7578 37.1775 40.8472 37.3907 40.8472 37.613C40.8472 38.931 41.3775 40.1951 42.3213 41.1271C43.265 42.0591 44.5451 42.5827 45.8798 42.5827C47.2146 42.5827 48.4946 42.0591 49.4384 41.1271C50.3822 40.1951 50.9124 38.931 50.9124 37.613C50.9124 37.3907 51.0019 37.1775 51.161 37.0204C51.3202 36.8632 51.536 36.7749 51.7611 36.7749C51.9862 36.7749 52.202 36.8632 52.3612 37.0204C52.5204 37.1775 52.6098 37.3907 52.6098 37.613C52.6098 39.3763 51.901 41.0676 50.6391 42.3152C49.3773 43.5629 47.6655 44.2649 45.8798 44.2672Z" fill="white"/>
<path d="M40.0412 38.4509C39.3026 38.437 38.5917 38.1704 38.0299 37.6967L36.3325 36.163C36.2837 36.1247 36.2408 36.0796 36.2052 36.0289C35.9346 35.6437 35.7757 35.1928 35.7457 34.7249C35.7157 34.257 35.8157 33.7898 36.035 33.374C36.2543 32.9581 36.5845 32.6094 36.9899 32.3654C37.3954 32.1214 37.8606 31.9914 38.3354 31.9895H41.6876C42.1637 31.9923 42.63 32.1239 43.0357 32.37C43.4414 32.6161 43.771 32.9672 43.9889 33.3853C44.2067 33.8034 44.3043 34.2724 44.2711 34.7414C44.238 35.2105 44.0753 35.6616 43.8008 36.0457C43.7653 36.0963 43.7224 36.1415 43.6735 36.1798L41.9762 37.6799C41.453 38.1691 40.7617 38.4446 40.0412 38.4509ZM37.4952 34.9981L39.0907 36.4312C39.3195 36.6464 39.6234 36.7664 39.9394 36.7664C40.2554 36.7664 40.5592 36.6464 40.788 36.4312L42.4175 34.9981C42.4873 34.8692 42.5239 34.7253 42.5239 34.5791C42.5239 34.4329 42.4873 34.289 42.4175 34.1601C42.3463 34.0122 42.2328 33.8882 42.0911 33.8033C41.9493 33.7184 41.7854 33.6763 41.6197 33.6824H38.3184C38.1527 33.6763 37.9889 33.7184 37.8471 33.8033C37.7053 33.8882 37.5919 34.0122 37.5207 34.1601C37.4534 34.2904 37.4198 34.435 37.4228 34.5812C37.4257 34.7274 37.4652 34.8706 37.5376 34.9981H37.4952Z" fill="white"/>
<path d="M9.96434 47.6613C6.14534 47.6613 3.40414 44.0828 3.28533 43.9236C3.26354 43.8971 3.24369 43.8691 3.22592 43.8398C2.93737 43.3369 -3.88592 31.3359 3.22592 16.4436C5.13125 12.2073 8.31087 8.65274 12.3329 6.2628C16.3549 3.87285 21.0244 2.76333 25.7071 3.08494C25.8186 3.09814 25.9263 3.1329 26.0241 3.18722C26.122 3.24153 26.208 3.31435 26.2774 3.40151C26.3467 3.48867 26.398 3.58846 26.4283 3.6952C26.4586 3.80193 26.4673 3.91351 26.454 4.02356C26.4406 4.13362 26.4054 4.24 26.3504 4.33662C26.2954 4.43324 26.2216 4.51822 26.1334 4.58671C26.0451 4.65519 25.9441 4.70583 25.836 4.73575C25.7279 4.76566 25.6149 4.77426 25.5034 4.76106C24.9348 4.69401 11.3477 3.24417 4.72806 17.1643C2.74626 21.182 1.7114 25.5906 1.70111 30.0595C1.69083 34.5285 2.70537 38.9417 4.66865 42.9682C4.9572 43.3285 7.21466 45.9936 9.96434 45.9936C11.6617 45.9936 13.359 44.9628 14.8866 42.9263C15.0228 42.7485 15.2249 42.6314 15.4485 42.6007C15.6721 42.5701 15.8989 42.6284 16.079 42.7629C16.2591 42.8973 16.3777 43.0969 16.4087 43.3177C16.4397 43.5386 16.3807 43.7625 16.2445 43.9403C14.352 46.4042 12.2473 47.6613 9.96434 47.6613Z" fill="white"/>
<path d="M70.016 47.6612C67.7415 47.6612 65.6284 46.4041 63.7358 43.9318C63.6008 43.754 63.5428 43.5305 63.5746 43.3104C63.6065 43.0904 63.7255 42.8919 63.9056 42.7585C64.0846 42.6243 64.3102 42.5656 64.533 42.5955C64.7557 42.6253 64.9574 42.7412 65.0937 42.9177C66.6468 44.9542 68.3017 45.985 70.016 45.985C72.8081 45.985 75.0231 43.32 75.3032 42.9597C77.2605 38.9317 78.2725 34.5197 78.2637 30.052C78.2549 25.5843 77.2255 21.1762 75.2522 17.1558C68.6411 3.23563 55.054 4.68548 54.4769 4.75252C54.3654 4.76573 54.2524 4.75713 54.1443 4.72721C54.0363 4.6973 53.9352 4.64665 53.8469 4.57817C53.7587 4.50969 53.6849 4.42471 53.6299 4.32808C53.5749 4.23146 53.5397 4.12508 53.5264 4.01503C53.513 3.90497 53.5217 3.79339 53.552 3.68666C53.5823 3.57993 53.6336 3.48014 53.7029 3.39298C53.7723 3.30582 53.8583 3.233 53.9562 3.17868C54.054 3.12436 54.1617 3.08961 54.2732 3.0764C58.9626 2.75394 63.6391 3.86354 67.6682 6.25472C71.6974 8.6459 74.8843 12.2029 76.7968 16.4435C83.8747 31.3358 77.0514 43.3368 76.7968 43.8396C76.782 43.8707 76.7619 43.899 76.7374 43.9234C76.6271 44.0827 73.8774 47.6528 70.0669 47.6612H70.016Z" fill="white"/>
</svg>
