<svg xmlns="http://www.w3.org/2000/svg" viewBox="0 0 94.28 68.8"><defs><style>.cls-1{fill:#f2c94c;}</style></defs><g id="레이어_2" data-name="레이어 2"><g id="레이어_1-2" data-name="레이어 1"><path class="cls-1" d="M47.14,68.8c-17.56,0-31.85-15.66-31.85-34.9a38.19,38.19,0,0,1,1.36-10.13,1,1,0,1,1,1.93.53,35.91,35.91,0,0,0-1.29,9.6c0,18.14,13.39,32.9,29.85,32.9S77,52,77,33.9a35.91,35.91,0,0,0-1.29-9.6,1,1,0,0,1,.7-1.23,1,1,0,0,1,1.23.7A37.78,37.78,0,0,1,79,33.9C79,53.14,64.71,68.8,47.14,68.8Z"/><path class="cls-1" d="M30.69,5.44a1.12,1.12,0,0,1-1-.56,1,1,0,0,1,.5-1.34A42.07,42.07,0,0,1,64,3.53a1,1,0,0,1,.51,1.33A1.14,1.14,0,0,1,63,5.32a39.7,39.7,0,0,0-31.83,0A1.18,1.18,0,0,1,30.69,5.44Z"/><circle class="cls-1" cx="33.27" cy="29.38" r="3.08"/><circle class="cls-1" cx="61.01" cy="29.38" r="3.08"/><path class="cls-1" d="M40.21,52.81a7.94,7.94,0,0,1-7.93-7.94,1,1,0,0,1,2,0,5.94,5.94,0,1,0,11.87,0,1,1,0,0,1,2,0A8,8,0,0,1,40.21,52.81Z"/><path class="cls-1" d="M54.08,52.81a7.94,7.94,0,0,1-7.93-7.94,1,1,0,0,1,2,0,5.93,5.93,0,1,0,11.86,0,1,1,0,0,1,2,0A7.94,7.94,0,0,1,54.08,52.81Z"/><path class="cls-1" d="M47.2,45.87a3.76,3.76,0,0,1-2.37-.9l-2-1.83a.75.75,0,0,1-.15-.16,3.07,3.07,0,0,1,2.51-4.82h3.95A3.07,3.07,0,0,1,51.63,43a.75.75,0,0,1-.15.16l-2,1.79A3.36,3.36,0,0,1,47.2,45.87Zm-3-4.12,1.88,1.71a1.45,1.45,0,0,0,2,0h0L50,41.75a1.06,1.06,0,0,0,0-1,1,1,0,0,0-.94-.57H45.17a1,1,0,0,0-.94.57A1.06,1.06,0,0,0,44.25,41.75Z"/><path class="cls-1" d="M11.76,56.86h0c-4.5,0-7.73-4.27-7.87-4.46a.86.86,0,0,1-.07-.1c-.34-.6-8.38-14.92,0-32.69A26.94,26.94,0,0,1,30.31,3.67a1,1,0,0,1-.24,2c-.67-.08-16.68-1.81-24.48,14.8a35.32,35.32,0,0,0-.07,30.79c.34.43,3,3.61,6.24,3.61h0c2,0,4-1.23,5.8-3.66a1,1,0,0,1,1.6,1.21C16.93,55.36,14.45,56.86,11.76,56.86Z"/><path class="cls-1" d="M82.52,56.86c-2.68,0-5.17-1.5-7.4-4.45a1,1,0,0,1,.2-1.4,1,1,0,0,1,1.4.19c1.83,2.43,3.78,3.66,5.8,3.66h0c3.29,0,5.9-3.18,6.23-3.61a35.44,35.44,0,0,0-.06-30.79C80.9,3.85,64.89,5.58,64.21,5.66a1,1,0,0,1-.24-2A27,27,0,0,1,90.51,19.61c8.34,17.77.3,32.09,0,32.69a.36.36,0,0,1-.07.1c-.13.19-3.37,4.45-7.86,4.46Z"/></g></g></svg>