<svg width="19" height="20" viewBox="0 0 19 20" fill="none" xmlns="http://www.w3.org/2000/svg">
<path d="M19 7.222V16.222C19 17.0176 18.6839 17.7807 18.1213 18.3433C17.5587 18.9059 16.7956 19.222 16 19.222H3C2.20435 19.222 1.44129 18.9059 0.87868 18.3433C0.316071 17.7807 0 17.0176 0 16.222V7.222C0 6.112 0.603 5.142 1.5 4.624L1.497 4.62L9.498 0L17.505 4.623L17.504 4.626C17.9591 4.88956 18.3368 5.26815 18.5994 5.72379C18.862 6.17943 19.0001 6.69611 19 7.222V7.222ZM1.717 5.688L9.5 10.742L17.283 5.688L9.498 1.155L1.717 5.688V5.688ZM9.5 11.934L1.134 6.502C1.04529 6.73167 0.999855 6.97579 1 7.222V16.222C1 16.7524 1.21071 17.2611 1.58579 17.6362C1.96086 18.0113 2.46957 18.222 3 18.222H16C16.5304 18.222 17.0391 18.0113 17.4142 17.6362C17.7893 17.2611 18 16.7524 18 16.222V7.222C18 6.968 17.953 6.725 17.866 6.502L9.5 11.933V11.934Z" fill="black"/>
</svg>
