<svg xmlns="http://www.w3.org/2000/svg" viewBox="0 0 87.59 62.75"><defs><style>.cls-1{fill:#474747;}</style></defs><g id="레이어_2" data-name="레이어 2"><g id="레이어_1-2" data-name="레이어 1"><path class="cls-1" d="M36.88,25a9.46,9.46,0,0,1-3.18-.55,9.88,9.88,0,0,1-6-6.16A13.72,13.72,0,0,1,28,8.85,14.06,14.06,0,0,1,34,1.52a10.28,10.28,0,0,1,8.64-1,9.91,9.91,0,0,1,6,6.16,13.72,13.72,0,0,1-.21,9.42h0C46.41,21.51,41.63,25,36.88,25Zm2.6-23a8.92,8.92,0,0,0-4.42,1.24,12.14,12.14,0,0,0-5.22,6.33,11.82,11.82,0,0,0-.21,8.11,8,8,0,0,0,4.76,5C39,24.24,44.45,21,46.55,15.47h0a11.82,11.82,0,0,0,.2-8.11,7.92,7.92,0,0,0-4.76-5A7.4,7.4,0,0,0,39.48,2Zm8,13.85h0Z"/><path class="cls-1" d="M37.51,19.61a5.42,5.42,0,0,1-1.87-.33,5.69,5.69,0,0,1-3.46-3.56,7.74,7.74,0,0,1,.12-5.32c1.4-3.75,5.19-5.85,8.44-4.7A5.72,5.72,0,0,1,44.2,9.26a7.77,7.77,0,0,1-.11,5.33h0a8,8,0,0,1-3.45,4.14A6.29,6.29,0,0,1,37.51,19.61ZM38.87,7.33a5.36,5.36,0,0,0-4.69,3.73,5.81,5.81,0,0,0-.11,4,3.8,3.8,0,0,0,2.26,2.38,3.93,3.93,0,0,0,3.29-.4,6,6,0,0,0,2.59-3.14,5.81,5.81,0,0,0,.1-4,3.77,3.77,0,0,0-2.25-2.37A3.5,3.5,0,0,0,38.87,7.33Zm4.28,6.93h0Z"/><path class="cls-1" d="M12.49,25C7.73,25,3,21.51.94,16.13h0C-1.53,9.55,1,2.56,6.69.55s12.25,1.72,14.72,8.3-.11,13.57-5.75,15.58A9.4,9.4,0,0,1,12.49,25ZM2.82,15.47C4.91,21,10.37,24.24,15,22.6s6.65-7.51,4.56-13.08S12,.74,7.37,2.38.72,9.89,2.82,15.47Z"/><path class="cls-1" d="M11.86,19.61a6.3,6.3,0,0,1-3.14-.88,8,8,0,0,1-3.44-4.14h0a7.77,7.77,0,0,1-.12-5.33A5.72,5.72,0,0,1,8.62,5.7a5.93,5.93,0,0,1,5,.55,7.94,7.94,0,0,1,3.45,4.15,7.68,7.68,0,0,1,.11,5.32,5.68,5.68,0,0,1-3.45,3.56A5.5,5.5,0,0,1,11.86,19.61Zm-4.7-5.69a6.08,6.08,0,0,0,2.58,3.14,4,4,0,0,0,3.3.4,3.8,3.8,0,0,0,2.26-2.38,5.87,5.87,0,0,0-.11-4,6,6,0,0,0-2.58-3.13,3.92,3.92,0,0,0-3.3-.4A3.78,3.78,0,0,0,7.05,9.9a5.87,5.87,0,0,0,.11,4Z"/><path class="cls-1" d="M7.33,62.75l-.19,0A1,1,0,0,1,6.37,62c-.1-.36-2.31-8.92,1.47-14.72,3.6-5.5,20.93-25.54,21.66-26.39a1,1,0,0,1,1.41-.12A.94.94,0,0,1,31,22.16c-.18.21-18,20.79-21.5,26.19-2.28,3.49-2,8.35-1.63,11.09L36,23.58a1,1,0,0,1,1.41-.18,1,1,0,0,1,.18,1.36L8.13,62.37A1,1,0,0,1,7.33,62.75Z"/><path class="cls-1" d="M24.26,28.53a1,1,0,0,1-.77-.35c-3-3.51-5.16-6-5.16-6a1,1,0,0,1,.12-1.37,1,1,0,0,1,1.41.12s2.18,2.52,5.17,6a1,1,0,0,1-.13,1.37A1,1,0,0,1,24.26,28.53Z"/><path class="cls-1" d="M42,62.75a1,1,0,0,1-.8-.38L23.89,40.2a1,1,0,0,1,.19-1.36,1,1,0,0,1,1.4.18l16,20.42c.39-2.74.65-7.61-1.63-11.09-1.38-2.12-5.26-7-11.23-14.12a1,1,0,0,1,.15-1.37,1,1,0,0,1,1.4.14c6.1,7.28,9.93,12.09,11.37,14.3C45.31,53.1,43.09,61.66,43,62a1,1,0,0,1-.77.71Z"/><path class="cls-1" d="M20,34.59a1,1,0,0,1-.8-.39L11.8,24.76A1,1,0,0,1,12,23.4a1,1,0,0,1,1.4.18L20.78,33a1,1,0,0,1-.19,1.37A1,1,0,0,1,20,34.59Z"/><path class="cls-1" d="M26.41,33.61a1.73,1.73,0,1,1-1.73-1.68A1.71,1.71,0,0,1,26.41,33.61Z"/><path class="cls-1" d="M67.47,55.09a1,1,0,0,1-1-.64,73.65,73.65,0,0,1-4-22.49c0-11.42,5-24.35,5.26-24.9a1,1,0,0,1,1.29-.56,1,1,0,0,1,.58,1.26c0,.13-5.13,13.14-5.13,24.2a72.74,72.74,0,0,0,3.9,21.83A1,1,0,0,1,67.8,55,1,1,0,0,1,67.47,55.09Z"/><path class="cls-1" d="M84.74,60.48H60.6a1,1,0,0,1-.73-.31l-1.85-2a.27.27,0,0,1-.07-.08c-.3-.4-7.3-9.88-7.3-26A61.73,61.73,0,0,1,57.89,3.48,1,1,0,0,1,58,3.3l1.85-1.94a1,1,0,0,1,.73-.31H84.74A2.89,2.89,0,0,1,87.59,4a1,1,0,0,1-2,0,.93.93,0,0,0-.85-1H61L59.57,4.54a61.18,61.18,0,0,0-6.92,27.6C52.65,47.07,59,56.27,59.53,57L61,58.54h23.7a1,1,0,0,0,0-1.95,1,1,0,1,1,0-2,2.92,2.92,0,0,1,0,5.84Z"/><path class="cls-1" d="M83,10.23H68a1,1,0,1,1,0-2H83a1,1,0,1,1,0,2Z"/><path class="cls-1" d="M83,16.17H68a1,1,0,1,1,0-2H83a1,1,0,1,1,0,2Z"/><path class="cls-1" d="M83,22.1H65.54a1,1,0,1,1,0-1.94H83a1,1,0,1,1,0,1.94Z"/><path class="cls-1" d="M83,28H65.54a1,1,0,1,1,0-1.94H83A1,1,0,1,1,83,28Z"/><path class="cls-1" d="M83,34H65.54a1,1,0,1,1,0-1.95H83A1,1,0,1,1,83,34Z"/><path class="cls-1" d="M83,39.92H65.54a1,1,0,1,1,0-2H83a1,1,0,1,1,0,2Z"/><path class="cls-1" d="M83,45.82H65.54a1,1,0,1,1,0-2H83a1,1,0,1,1,0,2Z"/><path class="cls-1" d="M83,51.75H68a1,1,0,1,1,0-1.94H83a1,1,0,1,1,0,1.94Z"/></g></g></svg>