<svg xmlns="http://www.w3.org/2000/svg" viewBox="0 0 93.16 88.16"><defs><style>.cls-1{fill:#474747;}</style></defs><g id="레이어_2" data-name="레이어 2"><g id="레이어_1-2" data-name="레이어 1"><path class="cls-1" d="M66.14,79.63a1,1,0,0,1-.47-1.89,26.37,26.37,0,0,0,3.22-2c8.45-6.1,1.54-28,1.47-28.19a1,1,0,0,1,.12-.86,1,1,0,0,1,.75-.44c6.13-.52,7.55-5,7.88-7,.56-3.3-.66-6.73-2.71-7.66C72.86,30.08,69.71,21,69.36,20a1,1,0,0,1,1.9-.65c1.2,3.56,3.88,9.54,6,10.47,2.93,1.31,4.59,5.53,3.86,9.81a10,10,0,0,1-8.47,8.45c1.39,4.83,6,23.14-2.55,29.28a28.31,28.31,0,0,1-3.46,2.13A1,1,0,0,1,66.14,79.63Z"/><path class="cls-1" d="M42,83.63a39.89,39.89,0,0,1-4.45-.3,1,1,0,0,1,.24-2,34.81,34.81,0,0,0,4.3.28h8.2a43.85,43.85,0,0,0,5.3-.37,1,1,0,1,1,.25,2,43.07,43.07,0,0,1-5.56.39H42Z"/><path class="cls-1" d="M27,79.62a1,1,0,0,1-.47-.12,29.19,29.19,0,0,1-3.41-2.12c-8.51-6.14-3.94-24.45-2.55-29.28a9.94,9.94,0,0,1-8.47-8.45c-.73-4.28.93-8.5,3.86-9.81,2.07-.93,4.76-6.91,6-10.47a1,1,0,1,1,1.89.65c-.34,1-3.49,10.06-7,11.64-2.06.93-3.27,4.36-2.71,7.66.33,1.92,1.75,6.43,7.88,7a.94.94,0,0,1,.74.44,1,1,0,0,1,.12.86c-.07.22-7,22.09,1.48,28.19a27.45,27.45,0,0,0,3.18,2A1,1,0,0,1,27,79.62Z"/><path class="cls-1" d="M42.85,24.75A2.76,2.76,0,1,1,40.09,22,2.76,2.76,0,0,1,42.85,24.75Z"/><path class="cls-1" d="M55.81,24.75A2.75,2.75,0,1,1,53.06,22,2.75,2.75,0,0,1,55.81,24.75Z"/><path class="cls-1" d="M42.76,40.14a4.82,4.82,0,0,1-4.82-4.82,1,1,0,1,1,2,0,2.82,2.82,0,0,0,5.64,0,1,1,0,0,1,2,0A4.82,4.82,0,0,1,42.76,40.14Z"/><path class="cls-1" d="M50.4,40.14a4.82,4.82,0,0,1-4.82-4.82,1,1,0,0,1,2,0,2.82,2.82,0,0,0,5.64,0,1,1,0,1,1,2,0A4.82,4.82,0,0,1,50.4,40.14Z"/><path class="cls-1" d="M48.44,35.09l2.18-2a2.27,2.27,0,0,0-1.87-3.57H44.4a2.27,2.27,0,0,0-1.86,3.57l2.17,2A2.7,2.7,0,0,0,48.44,35.09Z"/><path class="cls-1" d="M22.72,18.44a1,1,0,0,1-.5-.14c-.34-.2-8.28-5-9.14-10.61A6.6,6.6,0,0,1,14.9,2.1a5.38,5.38,0,0,1,4.94-2C25,.89,29,9.66,29.41,10.66A1,1,0,0,1,28.89,12a1,1,0,0,1-1.31-.51C26.5,9,23,2.59,19.52,2a3.4,3.4,0,0,0-3.13,1.41,4.59,4.59,0,0,0-1.33,3.94c.72,4.73,8.1,9.14,8.17,9.19a1,1,0,0,1,.36,1.36A1,1,0,0,1,22.72,18.44Z"/><path class="cls-1" d="M25.72,15.13a1,1,0,0,1-.67-.26L14,4.93a1,1,0,0,1,1.34-1.49l11.06,10a1,1,0,0,1-.66,1.74Z"/><path class="cls-1" d="M63.4,11.51a.94.94,0,0,1-.43-.1c-19.56-9.32-32.47-.18-32.6-.09A1,1,0,0,1,29.2,9.7c.56-.41,14-9.92,34.63-.09a1,1,0,0,1-.43,1.9Z"/><path class="cls-1" d="M67.73,15.13A1,1,0,0,1,67,14.8a1,1,0,0,1,.07-1.41l11.07-10a1,1,0,0,1,1.33,1.49L68.4,14.87A1,1,0,0,1,67.73,15.13Z"/><path class="cls-1" d="M70.72,18.44a1,1,0,0,1-.51-1.86c.07,0,7.46-4.47,8.18-9.19a4.61,4.61,0,0,0-1.33-3.94A3.42,3.42,0,0,0,73.92,2c-3.44.55-7,7-8,9.42a1,1,0,0,1-1.32.52A1,1,0,0,1,64,10.66c.44-1,4.45-9.77,9.57-10.6a5.34,5.34,0,0,1,4.93,2,6.57,6.57,0,0,1,1.82,5.59c-.86,5.66-8.79,10.41-9.13,10.61A1.06,1.06,0,0,1,70.72,18.44Z"/><path class="cls-1" d="M38.94,88.16H21.49a1,1,0,0,1-1-1,9.73,9.73,0,0,1,19.45,0A1,1,0,0,1,38.94,88.16Zm-16.39-2H37.87a7.73,7.73,0,0,0-15.32,0Z"/><path class="cls-1" d="M71.67,88.16H54.22a1,1,0,0,1-1-1,9.73,9.73,0,0,1,19.45,0A1,1,0,0,1,71.67,88.16Zm-16.38-2H70.6a7.72,7.72,0,0,0-15.31,0Z"/><path class="cls-1" d="M34,62.79a5,5,0,0,1-1.77-.32l-7.9-3a1,1,0,0,1,.7-1.87l7.9,3a3.06,3.06,0,0,0,3.94-1.79l.29-.76a3.06,3.06,0,0,0-1.79-3.94l-7.89-3a1,1,0,0,1-.59-1.29,1,1,0,0,1,1.29-.58l7.89,3a5.05,5.05,0,0,1,3,6.51l-.29.76A5.06,5.06,0,0,1,34,62.79Z"/><path class="cls-1" d="M59.45,62.79a5.06,5.06,0,0,1-4.74-3.28l-.29-.76a5,5,0,0,1,.14-3.86,5,5,0,0,1,2.82-2.65l7.89-3a1,1,0,0,1,1.29.58A1,1,0,0,1,66,51.14l-7.9,3a3,3,0,0,0-1.7,1.6,3.06,3.06,0,0,0-.09,2.34l.29.76a3.06,3.06,0,0,0,3.94,1.79l7.9-3a1,1,0,1,1,.7,1.87l-7.89,3A5.07,5.07,0,0,1,59.45,62.79Z"/><path class="cls-1" d="M68.13,31.75a1,1,0,0,1-.2-2l22.61-4.69a1,1,0,0,1,1.18.78A1,1,0,0,1,91,27.05L68.34,31.73A.75.75,0,0,1,68.13,31.75Z"/><path class="cls-1" d="M69.07,37a1,1,0,0,1,0-2l23.08-.51a1,1,0,0,1,1,1,1,1,0,0,1-1,1L69.09,37Z"/><path class="cls-1" d="M25,31.75a.71.71,0,0,1-.2,0L2.21,27.05a1,1,0,0,1,.4-2l22.61,4.69a1,1,0,0,1-.2,2Z"/><path class="cls-1" d="M24.09,37h0L1,36.48a1,1,0,0,1,0-2L24.11,35a1,1,0,0,1,0,2Z"/></g></g></svg>