<svg xmlns="http://www.w3.org/2000/svg" viewBox="0 0 95.23 75.98"><defs><style>.cls-1{fill:#474747;}.cls-2{fill:none;stroke:#474747;stroke-linejoin:round;stroke-width:1.96px;}</style></defs><g id="레이어_2" data-name="레이어 2"><g id="레이어_1-2" data-name="레이어 1"><path class="cls-1" d="M88.38,46.78a1.06,1.06,0,0,1-.65-.22L47.61,14.23,7.5,46.56a1.06,1.06,0,0,1-.77.22A1,1,0,0,1,6,46.39L.18,38.63a.89.89,0,0,1,.17-1.25L47,.22a1.07,1.07,0,0,1,1.29,0l3,2.43L94.88,37.38A.89.89,0,0,1,95,38.63l-5.85,7.76a1,1,0,0,1-.69.39ZM47.61,12.06a1,1,0,0,1,.65.23L88.2,44.47l4.69-6.22L47.61,2.17l-2.37,1.9L2.34,38.25,7,44.47,47,12.29A1,1,0,0,1,47.61,12.06Z"/><polyline class="cls-2" points="78.28 37.5 78.28 75 16.51 75 16.51 37.5"/></g></g></svg>