<svg width="15" height="20" viewBox="0 0 15 20" fill="none" xmlns="http://www.w3.org/2000/svg">
<path d="M12 6C12.7956 6 13.5587 6.31607 14.1213 6.87868C14.6839 7.44129 15 8.20435 15 9V17C15 17.7956 14.6839 18.5587 14.1213 19.1213C13.5587 19.6839 12.7956 20 12 20H3C2.20435 20 1.44129 19.6839 0.87868 19.1213C0.316071 18.5587 0 17.7956 0 17V9C0 8.20435 0.316071 7.44129 0.87868 6.87868C1.44129 6.31607 2.20435 6 3 6V4.5C3 3.30653 3.47411 2.16193 4.31802 1.31802C5.16193 0.474106 6.30653 0 7.5 0C8.69347 0 9.83807 0.474106 10.682 1.31802C11.5259 2.16193 12 3.30653 12 4.5V6ZM3 7C2.46957 7 1.96086 7.21071 1.58579 7.58579C1.21071 7.96086 1 8.46957 1 9V17C1 17.5304 1.21071 18.0391 1.58579 18.4142C1.96086 18.7893 2.46957 19 3 19H12C12.5304 19 13.0391 18.7893 13.4142 18.4142C13.7893 18.0391 14 17.5304 14 17V9C14 8.46957 13.7893 7.96086 13.4142 7.58579C13.0391 7.21071 12.5304 7 12 7H3ZM11 6V4.5C11 3.57174 10.6313 2.6815 9.97487 2.02513C9.3185 1.36875 8.42826 1 7.5 1C6.57174 1 5.6815 1.36875 5.02513 2.02513C4.36875 2.6815 4 3.57174 4 4.5V6H11ZM7.5 12C7.10218 12 6.72064 12.158 6.43934 12.4393C6.15804 12.7206 6 13.1022 6 13.5C6 13.8978 6.15804 14.2794 6.43934 14.5607C6.72064 14.842 7.10218 15 7.5 15C7.89782 15 8.27936 14.842 8.56066 14.5607C8.84196 14.2794 9 13.8978 9 13.5C9 13.1022 8.84196 12.7206 8.56066 12.4393C8.27936 12.158 7.89782 12 7.5 12ZM7.5 11C8.16304 11 8.79893 11.2634 9.26777 11.7322C9.73661 12.2011 10 12.837 10 13.5C10 14.163 9.73661 14.7989 9.26777 15.2678C8.79893 15.7366 8.16304 16 7.5 16C6.83696 16 6.20107 15.7366 5.73223 15.2678C5.26339 14.7989 5 14.163 5 13.5C5 12.837 5.26339 12.2011 5.73223 11.7322C6.20107 11.2634 6.83696 11 7.5 11Z" fill="black" fill-opacity="0.886"/>
</svg>
