<svg xmlns="http://www.w3.org/2000/svg" viewBox="0 0 75.81 68.99"><defs><style>.cls-1{fill:#474747;}</style></defs><g id="레이어_2" data-name="레이어 2"><g id="레이어_1-2" data-name="레이어 1"><path class="cls-1" d="M48.44,23.65c-4.69,0-8.51-5.31-8.51-11.83S43.75,0,48.44,0,57,5.3,57,11.82,53.14,23.65,48.44,23.65ZM48.44,2c-3.59,0-6.51,4.41-6.51,9.82s2.92,9.83,6.51,9.83S55,17.24,55,11.82,52,2,48.44,2Z"/><path class="cls-1" d="M68.62,34.47c-4,0-7.18-4.45-7.18-9.91s3.22-9.91,7.18-9.91,7.19,4.45,7.19,9.91S72.59,34.47,68.62,34.47Zm0-17.82c-2.85,0-5.18,3.55-5.18,7.91s2.33,7.91,5.18,7.91,5.19-3.62,5.19-7.91S71.44,16.65,68.62,16.65Z"/><path class="cls-1" d="M7.19,34.47C3.22,34.47,0,30,0,24.56s3.22-9.91,7.19-9.91,7.18,4.45,7.18,9.91S11.15,34.47,7.19,34.47Zm0-17.82C4.37,16.65,2,20.27,2,24.56s2.37,7.91,5.19,7.91,5.18-3.55,5.18-7.91S10.05,16.65,7.19,16.65Z"/><path class="cls-1" d="M25.91,23.65c-4.7,0-8.52-5.31-8.52-11.83S21.21,0,25.91,0s8.52,5.3,8.52,11.82S30.61,23.65,25.91,23.65ZM25.91,2c-3.59,0-6.52,4.41-6.52,9.82s2.93,9.83,6.52,9.83,6.52-4.41,6.52-9.83S29.5,2,25.91,2Z"/><path class="cls-1" d="M50.18,69C43,69,39.74,65.54,37.93,61.88,36.18,65.32,32.91,69,25.6,69c-8.12,0-14.25-6.23-14.25-14.5,0-9.29,7.32-16.53,14.17-22.58A18.18,18.18,0,0,1,49.6,32c8.55,7.59,15.09,14,15.09,21.27C64.69,64.87,56.87,69,50.18,69ZM37.92,58.33a1,1,0,0,1,.94.66c1.55,4.15,4,8,11.32,8,5.77,0,12.51-3.6,12.51-13.75,0-6.45-6.53-12.77-14.42-19.78a16.16,16.16,0,0,0-21.42-.05C20.32,39.17,13.35,46,13.35,54.49A12.11,12.11,0,0,0,25.6,67c7.23,0,9.75-3.84,11.25-7.6L37,59a1,1,0,0,1,.93-.69Z"/></g></g></svg>