<svg width="19" height="19" viewBox="0 0 19 19" fill="none" xmlns="http://www.w3.org/2000/svg">
<path d="M17.5 19C18.327 19 19 18.327 19 17.5V14C19 13.173 18.327 12.5 17.5 12.5C16.33 12.5 15.18 12.316 14.08 11.953C13.8171 11.87 13.5365 11.8599 13.2683 11.9238C13.0001 11.9877 12.7542 12.1233 12.557 12.316L11.117 13.756C8.62811 12.4048 6.58403 10.3614 5.232 7.873L6.66 6.436C7.072 6.054 7.22 5.473 7.044 4.914C6.68174 3.8123 6.49808 2.65973 6.5 1.5C6.5 0.673 5.827 0 5 0H1.5C0.673 0 0 0.673 0 1.5C0 11.15 7.85 19 17.5 19ZM1.5 1H5C5.13261 1 5.25979 1.05268 5.35355 1.14645C5.44732 1.24021 5.5 1.36739 5.5 1.5C5.5 2.777 5.7 4.031 6.093 5.22C6.12187 5.30628 6.12525 5.39906 6.10273 5.48721C6.0802 5.57536 6.03273 5.65515 5.966 5.717L4.01 7.683C5.647 10.911 8.065 13.329 11.308 14.98L13.257 13.03C13.3235 12.9642 13.4067 12.9177 13.4975 12.8955C13.5884 12.8733 13.6836 12.8762 13.773 12.904C14.969 13.3 16.223 13.5 17.5 13.5C17.775 13.5 18 13.725 18 14V17.5C18 17.775 17.775 18 17.5 18C8.402 18 1 10.598 1 1.5C1 1.36739 1.05268 1.24021 1.14645 1.14645C1.24021 1.05268 1.36739 1 1.5 1Z" fill="black"/>
</svg>
