<svg xmlns="http://www.w3.org/2000/svg" viewBox="0 0 61.9 61.9"><defs><style>.cls-1{fill:none;stroke:#474747;stroke-linejoin:round;stroke-width:2px;}</style></defs><g id="레이어_2" data-name="레이어 2"><g id="레이어_1-2" data-name="레이어 1"><path class="cls-1" d="M1.79,9.64A2.71,2.71,0,0,0,1.39,13c1.89,3.12,12.88,17,21.73,25.83S45.83,58.62,49,60.51a2.69,2.69,0,0,0,3.31-.4l7-8.47a4.47,4.47,0,0,0-.28-6l-8.14-8.15a4.48,4.48,0,0,0-5.58-.59L43.11,38.3a4.45,4.45,0,0,1-5.58-.59L24.19,24.37a4.46,4.46,0,0,1-.59-5.58L25,16.6A4.45,4.45,0,0,0,24.42,11L16.27,2.88a4.47,4.47,0,0,0-6-.28Z"/><line class="cls-1" x1="39.76" y1="11.07" x2="61.9" y2="11.07"/><line class="cls-1" x1="50.83" y1="22.15" x2="50.83"/></g></g></svg>