<svg width="19" height="20" viewBox="0 0 19 20" fill="none" xmlns="http://www.w3.org/2000/svg">
<path d="M17.3983 12.507L15.5843 11.217C15.889 10.0968 15.8873 8.91532 15.5793 7.796L17.3993 6.522L15.9463 4.008L13.9223 4.934C13.1042 4.11002 12.0799 3.52084 10.9563 3.228L10.7633 1.015H7.85733L7.66433 3.228C6.54098 3.52124 5.51699 4.11077 4.69933 4.935L2.67433 4.009L1.22233 6.523L3.04233 7.797C2.73425 8.91591 2.73218 10.097 3.03633 11.217L1.22233 12.507L2.67433 15.009L4.69933 14.082C5.51711 14.9059 6.54109 15.495 7.66433 15.788L7.85733 18.001H10.7633L10.9563 15.788C12.0796 15.495 13.1035 14.9058 13.9213 14.082L15.9463 15.009L17.3993 12.508L17.3983 12.507ZM11.3153 2.80483e-07C11.4441 -0.000135972 11.5679 0.0493737 11.661 0.138224C11.7541 0.227074 11.8094 0.348419 11.8153 0.477L11.9933 2.512C12.7326 2.79371 13.4222 3.19136 14.0363 3.69L15.8863 2.827C16.0006 2.76821 16.1331 2.75567 16.2564 2.79198C16.3796 2.82829 16.4842 2.91066 16.5483 3.022L18.5533 6.492C18.6178 6.60323 18.6369 6.73499 18.6067 6.85994C18.5765 6.98489 18.4994 7.09342 18.3913 7.163L16.7173 8.335C16.8453 9.133 16.8413 9.928 16.7183 10.694L18.3913 11.864C18.4997 11.9336 18.577 12.0423 18.6072 12.1675C18.6373 12.2927 18.6181 12.4247 18.5533 12.536L16.5483 15.993C16.4842 16.1043 16.3796 16.1867 16.2564 16.223C16.1331 16.2593 16.0006 16.2468 15.8863 16.188L14.0363 15.325C13.4343 15.815 12.7483 16.215 11.9933 16.504L11.8153 18.539C11.8092 18.6674 11.7538 18.7885 11.6607 18.8771C11.5676 18.9658 11.4439 19.0152 11.3153 19.015H7.30533C7.17678 19.0152 7.05311 18.9658 6.96 18.8771C6.86689 18.7885 6.8115 18.6674 6.80533 18.539L6.62733 16.504C5.88807 16.2219 5.19843 15.824 4.58433 15.325L2.73433 16.188C2.62009 16.2472 2.48743 16.26 2.36394 16.2239C2.24046 16.1878 2.13566 16.1054 2.07133 15.994L0.0673335 12.535C0.0029115 12.4238 -0.0162002 12.292 0.0139659 12.1671C0.044132 12.0421 0.121258 11.9336 0.229333 11.864L1.90233 10.693C1.77705 9.91166 1.77705 9.11534 1.90233 8.334L0.230334 7.163C0.122523 7.09344 0.045581 6.98509 0.0154269 6.86038C-0.0147272 6.73567 0.00421469 6.60414 0.0683334 6.493L2.07033 3.022C2.13449 2.9104 2.23922 2.82784 2.36272 2.79152C2.48622 2.7552 2.61897 2.76791 2.73333 2.827L4.58333 3.69C5.19747 3.19136 5.88711 2.79371 6.62633 2.512L6.80433 0.477C6.81026 0.348419 6.86554 0.227074 6.95867 0.138224C7.0518 0.0493737 7.17562 -0.000135972 7.30433 2.80483e-07H11.3143H11.3153ZM9.31033 6.015C10.2386 6.015 11.1288 6.38375 11.7852 7.04013C12.4416 7.6965 12.8103 8.58674 12.8103 9.515C12.8103 10.4433 12.4416 11.3335 11.7852 11.9899C11.1288 12.6463 10.2386 13.015 9.31033 13.015C8.38208 13.015 7.49184 12.6463 6.83546 11.9899C6.17908 11.3335 5.81033 10.4433 5.81033 9.515C5.81033 8.58674 6.17908 7.6965 6.83546 7.04013C7.49184 6.38375 8.38208 6.015 9.31033 6.015ZM9.31033 7.015C8.64729 7.015 8.01141 7.27839 7.54257 7.74723C7.07373 8.21607 6.81033 8.85196 6.81033 9.515C6.81033 10.178 7.07373 10.8139 7.54257 11.2828C8.01141 11.7516 8.64729 12.015 9.31033 12.015C9.97337 12.015 10.6093 11.7516 11.0781 11.2828C11.5469 10.8139 11.8103 10.178 11.8103 9.515C11.8103 8.85196 11.5469 8.21607 11.0781 7.74723C10.6093 7.27839 9.97337 7.015 9.31033 7.015Z" fill="#474747"/>
</svg>
