<svg xmlns="http://www.w3.org/2000/svg" viewBox="0 0 84.34 84.34"><defs><style>.cls-1{fill:#474747;}</style></defs><g id="레이어_2" data-name="레이어 2"><g id="레이어_1-2" data-name="레이어 1"><path class="cls-1" d="M45.58,68.42a3,3,0,0,1-2.12-.87L6.63,30.73a3,3,0,0,1,0-4.25L26.48,6.63a3.09,3.09,0,0,1,4.25,0L67.55,43.46a3,3,0,0,1,.87,2.12,3,3,0,0,1-.87,2.12L47.7,67.55A3,3,0,0,1,45.58,68.42ZM28.6,7.76a1,1,0,0,0-.7.29L8.05,27.9a1,1,0,0,0-.29.7,1,1,0,0,0,.29.71h0L44.87,66.13a1,1,0,0,0,1.41,0L66.13,46.28a1,1,0,0,0,.29-.7,1,1,0,0,0-.29-.71L29.31,8.05A1,1,0,0,0,28.6,7.76Z"/><path class="cls-1" d="M61.87,71.26a1,1,0,0,1-.71-.29l-8.69-8.7a1,1,0,0,1,0-1.41,1,1,0,0,1,1.42,0l8.69,8.69a1,1,0,0,1,0,1.42A1,1,0,0,1,61.87,71.26Z"/><path class="cls-1" d="M70.26,62.87a1,1,0,0,1-.71-.29l-8.69-8.69a1,1,0,0,1,0-1.42,1,1,0,0,1,1.41,0L71,61.16a1,1,0,0,1,0,1.42A1,1,0,0,1,70.26,62.87Z"/><path class="cls-1" d="M14.31,38a1,1,0,0,1-.7-1.71L36.28,13.61a1,1,0,0,1,1.42,0,1,1,0,0,1,0,1.41L15,37.7A1,1,0,0,1,14.31,38Z"/><path class="cls-1" d="M23.74,46.55a1,1,0,0,1-.7-1.71l8.18-8.18a1,1,0,1,1,1.41,1.41l-8.18,8.19A1,1,0,0,1,23.74,46.55Z"/><path class="cls-1" d="M31.35,54.16a1,1,0,0,1-.7-.29,1,1,0,0,1,0-1.41l8.18-8.19a1,1,0,0,1,1.42,1.42l-8.19,8.18A1,1,0,0,1,31.35,54.16Z"/><path class="cls-1" d="M61.14,84.34a1,1,0,0,1-.71-.29L55.28,78.9a1,1,0,0,1,0-1.41L77.49,55.28a1,1,0,0,1,1.41,0l5.15,5.15a1,1,0,0,1,0,1.42l-22.2,22.2A1,1,0,0,1,61.14,84.34ZM57.4,78.2l3.74,3.73L81.93,61.14,78.2,57.4Z"/><path class="cls-1" d="M9.07,10.07a1,1,0,0,1-.71-.3L.29,1.71A1,1,0,0,1,1.71.29L9.77,8.36a1,1,0,0,1,0,1.41A1,1,0,0,1,9.07,10.07Z"/><path class="cls-1" d="M11.8,22a1,1,0,0,1-.71-.29c-3.93-3.93-4.74-9.52-1.8-12.45s8.52-2.13,12.45,1.8a1,1,0,1,1-1.42,1.41c-3.15-3.15-7.46-4-9.62-1.8s-1.35,6.47,1.8,9.62a1,1,0,0,1,0,1.42A1,1,0,0,1,11.8,22Z"/></g></g></svg>