<svg xmlns="http://www.w3.org/2000/svg" viewBox="0 0 77.88 59.82"><defs><style>.cls-1{fill:#6a6a6a;stroke:#283328;stroke-linecap:round;stroke-linejoin:round;stroke-width:2px;}.cls-2{fill:#283328;}</style></defs><g id="레이어_2" data-name="레이어 2"><g id="레이어_1-2" data-name="레이어 1"><path class="cls-1" d="M32,14.34C31.44,13.14,35,1,37.14,1s5.75,7.25,5.75,7.25S50,9.18,53,9.72c0,0,3.18-8.54,6.68-7.72s4.52,25.45,4.79,26.77,9.93,5,11.25,6.46,1.2,4.23,1.2,4.23L61,40.23s2.52,5.46,1.59,6.39-23.29.16-24.61-.23-36,0-36.67-1.67-.06-22.9,9.84-27.85c5.11-2.55,17.19-1.77,21-.54C33.12,16.64,32.13,14.7,32,14.34Z"/><path class="cls-1" d="M47.71,36.76s11.24.41,14,5"/><line class="cls-1" x1="62.96" y1="32.72" x2="64.43" y2="28.77"/><line class="cls-1" x1="37" y1="16.79" x2="36.71" y2="18.5"/><line class="cls-1" x1="51.73" y1="19.2" x2="51.4" y2="21.54"/><path class="cls-2" d="M42.79,22.11c0,.75-1.54,1.32-1.75,1.32h-.25c-.2,0-1.69-.66-1.67-1.41h0a1.36,1.36,0,0,1,1.4-1.33l.94,0a1.36,1.36,0,0,1,1.33,1.4Z"/><path class="cls-1" d="M32.73,9.93S29.14,20.87,28.8,22.58s1,7.1,9.74,10"/><path class="cls-1" d="M13.87,28.71S27.67,27.64,28,39.93c0,0,6.53.3,5.62,5.46"/><path class="cls-1" d="M1.26,41.34C-2.45,62.93,35,55.92,52.25,58.77c3.79.63,5.41-5.15,1.6-5.79-11-1.81-15-.58-26.07-1.67-7.91-.77-16.11-1-18-7.51"/></g></g></svg>