<svg xmlns="http://www.w3.org/2000/svg" viewBox="0 0 87.48 88.07"><defs><style>.cls-1{fill:#6a6a6a;}.cls-1,.cls-2{stroke:#283328;stroke-linecap:round;stroke-linejoin:round;stroke-width:2px;}.cls-2{fill:#3b9eff;}.cls-3{fill:#283328;}</style></defs><g id="레이어_2" data-name="레이어 2"><g id="레이어_1-2" data-name="레이어 1"><path class="cls-1" d="M82.71,77.4c-6,.85-12.78,0-16.32-5.44-2.76-4.27-2.69-10.38-3.74-15.22-.82-3.78-6.6-2.18-5.78,1.6,1.55,7.19,1.75,14.58,7.12,20.18,5.11,5.32,13.53,5.62,20.31,4.66C88.12,82.64,86.49,76.86,82.71,77.4Z"/><path class="cls-1" d="M38.89,19.18c.12.25,2.43.09,2.71.12a12.9,12.9,0,0,1,5.65,1.89c3.36,2.11,5.53,5.94,7.07,9.53S57.8,37.78,59,41.59c2.6,8.22,6.72,18.81,1.62,26.84a4.44,4.44,0,0,1-5.25,1.89c-2.17-.61-6.16-2.66-7-5-.68-1.93.06-5.13.13-7.14.07-2.39.3-6.24,2.35-8C54,47.6,44.46,36.47,32.5,39"/><path class="cls-2" d="M60,62.43A23.06,23.06,0,1,1,36.89,39.37,23.05,23.05,0,0,1,60,62.43Z"/><path class="cls-2" d="M53.24,80.67a2,2,0,0,1-1.63-.84C46.07,72,38.55,72.1,38.49,72.1h-.05a2,2,0,0,1,0-4c.41,0,9.73-.13,16.48,9.42a2,2,0,0,1-1.63,3.15Z"/><path class="cls-2" d="M57.53,77.24a2,2,0,0,1-1.64-.85A21.1,21.1,0,0,0,46,68.79,2,2,0,0,1,47.17,65a24.76,24.76,0,0,1,12,9.14,2,2,0,0,1-.49,2.78A2,2,0,0,1,57.53,77.24Z"/><path class="cls-2" d="M29.05,55.94h-.13c-8.16-.54-12.78-7.07-13-7.34a2,2,0,1,1,3.28-2.29h0S23,51.54,29.18,52a2,2,0,0,1-.13,4Z"/><path class="cls-2" d="M23.86,60.09h-.17c-6.94-.61-10-3.42-11.1-4.48l-.2-.19a2,2,0,0,1-.52-2.75,2,2,0,0,1,2.81-.53,7.35,7.35,0,0,1,.64.54c.94.88,3.15,2.94,8.72,3.43a2,2,0,0,1-.18,4Z"/><path class="cls-2" d="M13.23,70.75a2.08,2.08,0,0,1-.9-.21,2,2,0,0,1-.88-2.69c2.74-5.44,14.12-23,45-19.9a2,2,0,0,1-.39,4C27.7,49.11,17.47,64.78,15,69.65A2,2,0,0,1,13.23,70.75Z"/><path class="cls-2" d="M14.85,77.25a2,2,0,0,1-.71-.14A2,2,0,0,1,13,74.53c.09-.25,10-24.75,45.6-21.22a2,2,0,0,1-.4,4C25.56,54,16.8,75.74,16.72,76A2,2,0,0,1,14.85,77.25Z"/><path class="cls-2" d="M18.58,81.07a2.08,2.08,0,0,1-.9-.21,2,2,0,0,1-.89-2.69C18,75.87,29,55.81,59.45,58.88a2,2,0,1,1-.41,4C31.24,60,21.4,77.92,20.37,80A2,2,0,0,1,18.58,81.07Z"/><path class="cls-2" d="M22.79,84.11a1.93,1.93,0,0,1-.9-.22A2,2,0,0,1,21,81.2c.42-.81,10.45-20,38.66-17.23a2,2,0,0,1-.39,4C33.75,65.47,24.66,82.83,24.57,83A2,2,0,0,1,22.79,84.11Z"/><path class="cls-2" d="M46.11,86.29a2,2,0,0,1-1.88-2.67C53.82,56.8,41.09,43.08,37,39.51a2,2,0,0,1,2.62-3C44.19,40.47,58.45,55.75,48,85A2,2,0,0,1,46.11,86.29Z"/><path class="cls-2" d="M40.39,87.07a2,2,0,0,1-.75-.15,2,2,0,0,1-1.1-2.6C50.05,56,31.21,40.52,31,40.37a2,2,0,1,1,2.49-3.13c.21.17,21.36,17.48,8.73,48.58A2,2,0,0,1,40.39,87.07Z"/><path class="cls-2" d="M34.77,86.56a2,2,0,0,1-.67-.12,2,2,0,0,1-1.21-2.56c9.47-26.3-5.49-40.17-7.23-41.67a2,2,0,0,1,2.61-3C30.22,40.86,47,56.42,36.66,85.23A2,2,0,0,1,34.77,86.56Z"/><path class="cls-2" d="M29.79,85.54a2,2,0,0,1-1.88-2.67c8.58-24.16-6.07-37.19-6.22-37.31a2,2,0,1,1,2.62-3c.69.6,16.86,15,7.37,41.68A2,2,0,0,1,29.79,85.54Z"/><path class="cls-1" d="M10,41.17c-.56.35-6.4,8.07-.84,11.41s9.75-6,9.75-6"/><path class="cls-1" d="M43.27,23.42c-1.73-2.77-20.1-24.72-22-22.22s-.59,14.59-.59,14.59L9.73,21.67s-7.26-11.19-8.6-9.29,8.21,32.49,9.56,34.54c1.06,1.59,17.45.52,19.9-.74,0,0,2.2.36,10.39-9.14.06-.07,1.32-2.71,1.19-1.93"/><line class="cls-1" x1="31.8" y1="25.42" x2="33.03" y2="27.77"/><line class="cls-1" x1="13.74" y1="35.46" x2="14.96" y2="37.81"/><path class="cls-3" d="M21.57,38.16c.74,1.15,3.53.66,3.83.47l.37-.24c.29-.18,1.88-2.55,1.14-3.69h0a2.41,2.41,0,0,0-3.33-.8l-1.37.89a2.42,2.42,0,0,0-.64,3.37Z"/><path class="cls-1" d="M43,30s-1,15-3.5,18c0,0-.89,1.72,2.37,2.16s9.17.44,10.65-9"/><path class="cls-1" d="M44.54,43.47c-1.64-.18-4.77.62-5.18,2.14-.23.84-.11,3.69.89,3.92"/></g></g></svg>