<svg xmlns="http://www.w3.org/2000/svg" viewBox="0 0 93.07 60.93"><defs><style>.cls-1{fill:#6a6a6a;stroke:#283328;stroke-linecap:round;stroke-linejoin:round;stroke-width:2px;}.cls-2{fill:#283328;}</style></defs><g id="레이어_2" data-name="레이어 2"><g id="레이어_1-2" data-name="레이어 1"><path class="cls-1" d="M78.41,45.66s13.51,2.59,13.66,6.19S89.62,56.16,84.88,56s-13.81-3.74-14.24-3.74"/><path class="cls-1" d="M18,51.64C10.13,48.2,7.88,38.85,7.19,31.05S6.73,11.37,12.92,6c2.93-2.54-1.33-6.77-4.24-4.25C1.07,8.36.58,21.7,1.19,31.05,1.82,40.77,5.25,52.57,15,56.82,18.46,58.35,21.52,53.19,18,51.64Z"/><path class="cls-1" d="M52.56,28.7s5.89-14.86,7.3-14.45,6.83,10.39,6.83,10.39l8.08.21s3.32-6.08,5.56-6.08c1.58,0,1.83,10.24,1.83,10.24s1.27,7.62,2.75,13c.64,2.36-7,8.47-7.83,8.67s10,.88,10.24,4.19c.49,5.65-6.66,5.23-12.33,4.89-3.09-.18-27.6-3.69-30.61-5.55,3,8-11.74,5.13-15.56,5-4.58-.11-9.27,0-13.83-.48-1.2-.12-11-12-8-19.33s16.33-23,26-21.33S52.56,28.7,52.56,28.7Z"/><path class="cls-1" d="M19.66,33.1s24.66,3.66,11,17.66c0,0,16,.67,13,7.67"/><line class="cls-1" x1="53.67" y1="46.96" x2="77.26" y2="50.84"/><line class="cls-1" x1="64.51" y1="37" x2="64.64" y2="38.82"/><line class="cls-1" x1="79.44" y1="36.43" x2="79.57" y2="38.25"/><path class="cls-2" d="M75.62,40.83c0,1-1.93,1.66-2.19,1.65h-.31c-.25,0-2.13-.83-2.1-1.77h0A1.72,1.72,0,0,1,72.78,39l1.18,0a1.69,1.69,0,0,1,1.66,1.75Z"/><path class="cls-1" d="M52.87,28.25c-.58.57-4.75,7.33-2.44,8.77"/></g></g></svg>