<svg xmlns="http://www.w3.org/2000/svg" viewBox="0 0 99.35 65.42"><defs><style>.cls-1,.cls-5{fill:#b2b2b2;}.cls-1,.cls-2,.cls-3,.cls-4{stroke:#283328;}.cls-1,.cls-2,.cls-3,.cls-4,.cls-5{stroke-linecap:round;stroke-linejoin:round;stroke-width:2px;}.cls-2{fill:#3b9eff;}.cls-3{fill:#6a6a6a;}.cls-4{fill:none;}.cls-5{stroke:#fff;}.cls-6{fill:#fff;}</style></defs><g id="레이어_2" data-name="레이어 2"><g id="레이어_1-2" data-name="레이어 1"><path class="cls-1" d="M82,58.77a2.7,2.7,0,0,1-2.7,2.7H16.82a2.7,2.7,0,0,1-2.71-2.7h0a2.7,2.7,0,0,1,2.71-2.7H79.26a2.7,2.7,0,0,1,2.7,2.7Z"/><path class="cls-1" d="M78.77,45.24a1.93,1.93,0,0,1-1.9,2h-60a1.93,1.93,0,0,1-1.9-2V3a1.93,1.93,0,0,1,1.9-2h60a1.93,1.93,0,0,1,1.9,2Z"/><path class="cls-2" d="M73.8,41.87a1.63,1.63,0,0,1-1.61,1.66h-51a1.64,1.64,0,0,1-1.62-1.66V6.72a1.64,1.64,0,0,1,1.62-1.65h51A1.63,1.63,0,0,1,73.8,6.72Z"/><path class="cls-3" d="M4,49.74S2.43,43,2.85,42.16,7,43.69,7,43.69l7-4.24s1.21-8.51,2.84-8.6,5.06,6.44,5.06,6.44S38.08,31.51,55.41,33,81.12,52.5,81.29,52.76s6.81,4.39,6.81,4.39-.53,6-1.38,6.91-12.17.5-19.18-5.34H19.17l-1.38.62c-1,.45-2,.89-3,1.31-1.22.51-2.45,1-3.66,1.54-.83.36-1.66.72-2.51,1a5.79,5.79,0,0,0-1,.47,7.6,7.6,0,0,1-1.15.34,3.1,3.1,0,0,1-2.95-.29,7.62,7.62,0,0,1-1.23-1.11,4.78,4.78,0,0,1-1.31-2c-.09-.49.58-.86.88-1.11.78-.64,1.52-1.31,2.28-2C4.17,57.56,3.48,50.63,4,49.74Z"/><path class="cls-4" d="M5,57.23a133.23,133.23,0,0,0,12.71-10"/><line class="cls-4" x1="8.66" y1="50.81" x2="8.92" y2="52.5"/><line class="cls-4" x1="23.06" y1="37.2" x2="22.71" y2="39.69"/><path class="cls-4" d="M64.39,54.89a16.48,16.48,0,0,0,3.75,4.54"/><path class="cls-3" d="M71.49,47.6c7.35,5.84,13.88,13.06,23.25,15,3.63.76,5.17-5,1.53-5.79C88.7,55.25,83.36,49.67,77.69,44.6a48.4,48.4,0,0,0-9.11-6.48"/><line class="cls-5" x1="28.55" y1="14.39" x2="30.39" y2="14.39"/><line class="cls-5" x1="36.72" y1="14.39" x2="38.55" y2="14.39"/><line class="cls-5" x1="44.89" y1="14.39" x2="46.72" y2="14.39"/><line class="cls-5" x1="53.05" y1="14.39" x2="54.89" y2="14.39"/><rect class="cls-6" x="59.89" y="12.5" width="2.16" height="4.44"/></g></g></svg>