<svg xmlns="http://www.w3.org/2000/svg" viewBox="0 0 66.56 70.81"><defs><style>.cls-1{fill:#fe8099;}.cls-1,.cls-2{stroke:#283328;stroke-linecap:round;stroke-linejoin:round;stroke-width:2px;}.cls-2{fill:#fec544;}.cls-3{fill:#283328;}</style></defs><g id="레이어_2" data-name="레이어 2"><g id="레이어_1-2" data-name="레이어 1"><path class="cls-1" d="M52.35,35.72c-.14,1.8.37,4.11,1.89,5.22a3.7,3.7,0,0,0,4.57-.31c1.56-1.74,1.29-4.18.25-6.1"/><path class="cls-2" d="M49.61,48.16,48.29,58.21A5.24,5.24,0,0,1,50.93,61H42.85l.33-11"/><path class="cls-2" d="M24.73,50.47l-7.58,8.07s1.81.33,2,3.13H12.54l-1.65-4.78L22.42,42.72"/><path class="cls-2" d="M15.23,33.85c.5.19,0-.06-.12-.56a7.66,7.66,0,0,1-.28-2.48,7.46,7.46,0,0,1,.77-3.64c2.2-2.67-1.6-6.52-3.83-3.83-3.4,4.13-3.77,13.5,2,15.73C17.05,40.33,18.45,35.09,15.23,33.85Z"/><path class="cls-2" d="M60.19,31.4a49,49,0,0,0-4,6.21c-.65,1.32-4.61,14.34-11.36,16L43.51,65.29s2.14,2.15,1.48,3.63-8.57.66-8.57.66L34.78,54.75l-14.5-4.28-13,12.68a2.88,2.88,0,0,1,1.16,4L1,66.94s-.33-10,5.11-15.49S6.6,35.8,16.65,32.84s16-2.8,21.75-7.42c0,0,1.62-2.88,3.52-6.2"/><path class="cls-2" d="M40.38,28.7c-.08-.3-1.64-5.81-1.7-6.23,0,0-6.7-15.34-5-15.75s10.88,5,10.88,5,6.31-3.08,11.85-2.4c0,0,4.44-8.63,5.75-8.34S64,15,64,15s2.89,8.17.77,14.13c0,0,0,3.85-1.35,5.65a5.41,5.41,0,0,1-3.19,1.84c-.64.11-3.11-.26-3-1.32-.11,1.43-2.23,2.3-3.57,2.74-2.79.91-5-.69-6.18-3.43"/><line class="cls-2" x1="45.95" y1="22.4" x2="46.55" y2="24.36"/><line class="cls-2" x1="59.53" y1="20.38" x2="60.1" y2="22.36"/><path class="cls-3" d="M59.11,31c.26,1-1.1,2.58-2.26,2.89l-.44.25c-1.16.3-3.55-.45-3.81-1.45h0a2,2,0,0,1,1.64-2.35l2.29-.6A2,2,0,0,1,59.11,31Z"/><line class="cls-2" x1="57.4" y1="35.78" x2="56.28" y2="31.48"/><path class="cls-2" d="M42.29,15.21a6.75,6.75,0,0,1,3-3.63"/><path class="cls-2" d="M59.73,11.14a7.7,7.7,0,0,0-4.6-1.82"/></g></g></svg>