<svg xmlns="http://www.w3.org/2000/svg" viewBox="0 0 69.07 69.39"><defs><style>.cls-1{fill:#fec544;}.cls-1,.cls-2{stroke:#283328;stroke-linecap:round;stroke-linejoin:round;stroke-width:2px;}.cls-2{fill:#3b9eff;}.cls-3{fill:#283328;}</style></defs><g id="레이어_2" data-name="레이어 2"><g id="레이어_1-2" data-name="레이어 1"><path class="cls-1" d="M12.14,10.53A5.91,5.91,0,0,1,11.94,8c0-.17.08-.35.13-.52,2.22,1.82,5.46-1.77,3.44-4.34C14.12,1.38,11.86.28,9.71,1.54,7.73,2.7,6.88,5.17,6.53,7.3c-.74,4.48,1.68,9.49,4.36,12.92,2.18,2.8,6-1.12,3.89-3.88A16.38,16.38,0,0,1,12.14,10.53Z"/><path class="cls-1" d="M9.54,48.3s5.86,1.47,8.79-1.46S11,38.05,11,38.05"/><path class="cls-2" d="M65.64,41.7c-2.42-1.11-5.12-.17-7.54.78a2.11,2.11,0,0,0-2.79,1c-3.61,6.62,6.75,12.3,11.08,7C68.41,48,69.1,43.3,65.64,41.7Z"/><path class="cls-1" d="M57.18,19.44S48.64,6.25,47.8,6.49s-4.28,3.39.57,11.8"/><path class="cls-1" d="M40.48,49.66S41.93,60,49.26,63c0,0,4,0,5.88-3.1.49-.82-1.4-2.76-2.64-2.66s-3.25-7.71-3.25-8.53"/><path class="cls-1" d="M32.61,26.7c-.39-5.75.38-9.6.5-12.72,0,0,.64-8.87,4.37-6.35s4.91,11,4.91,11L50,18.24s7.93.45,10.09,3.34,3.61,9.52,3.61,9.52,3,3.58,3.37,5.17a9.5,9.5,0,0,1-.87,6.2c-.49.88-1.11,1.76-2.24,1.52-.73-.15-1.85-1.37-1.59-2.19-1.12,3.48-5.12,4.93-8.51,3.89-.47-.15-6.63,10.06-11.92,11.5s-10.1,2.89-16-2.64-14.55-13.2-14.55-13.2l-2.77,12S12.45,56.59,12,59C12,59,7.16,62.73,1,57.92c0,0-.51-25.26,2.65-31.58a15.74,15.74,0,0,1,17.21-8.42C28.7,19.36,32.61,26.7,32.61,26.7Z"/><path class="cls-1" d="M27.12,53.35s.61,11.42,9.15,14.91c0,0,6,1,8.6-2.57.66-.89-2.6-2.72-4-2.6S39.51,57,39.51,56"/><path class="cls-1" d="M32.24,26.34c0,4.39,1.61,13.31,3.66,15.74"/><path class="cls-3" d="M61.07,38.62s-3.62-1.83-1.15-2.84,5.76-1.21,5.26,0S64.2,40.85,61.07,38.62Z"/><path class="cls-1" d="M45.6,43.73s4.63,4.65,9.39,4.94l-.14-2.88"/><line class="cls-1" x1="47.8" y1="30.53" x2="47.92" y2="33.51"/><path class="cls-1" d="M38.55,22.21c.48-.36,2.76-3.37,4.44-3.37"/><line class="cls-1" x1="61.03" y1="31.22" x2="61.03" y2="29.06"/></g></g></svg>