<svg xmlns="http://www.w3.org/2000/svg" viewBox="0 0 79.3 66.71"><defs><style>.cls-1{fill:#fec544;stroke:#283328;stroke-linecap:round;stroke-linejoin:round;stroke-width:2px;}.cls-2{fill:#c2ff28;}.cls-3{fill:#283328;}</style></defs><g id="레이어_2" data-name="레이어 2"><g id="레이어_1-2" data-name="레이어 1"><path class="cls-1" d="M12.4,3.42V20.49c0,3.22,5,3.22,5,0V3.42C17.4.19,12.4.19,12.4,3.42Z"/><path class="cls-2" d="M79,62.71c-1.84-2.42-6.68-1.06-9.27-.81a53.3,53.3,0,0,0-6,.39,1.55,1.55,0,0,0-1.55-.23,5.78,5.78,0,0,0-2,1.11c-1.13.92-.37,2.57.8,3,.13,0,.28.07.42.11a1.41,1.41,0,0,0,1.4.3c2.51.35,5.36,0,7.78.07,2.57.07,6.17.11,8.18-1.76A1.73,1.73,0,0,0,79,62.71Z"/><path class="cls-1" d="M12.93,40.09s-.85,12.76-.85,13.32,8.56,1.54,9.12.84.14-4.77-2.39-5.33c0,0,3.79-12.2,3.37-12.2s-8.41-8-8.41-8S13.07,39.24,12.93,40.09Z"/><path class="cls-1" d="M44,46l.28,4.9s3.78,1.55,3.08,3.37-8.27.7-9.67,0L38,44.43"/><path class="cls-1" d="M70.83,41.92S73.68,30.27,72.89,29s-8.56,8.59-8.56,8.59"/><path class="cls-1" d="M1,55.79s3.36-28,4.34-30.29,2.14-7.47,13.11-10c5.73-1.34,17.45.73,25.3,5.78S68.37,36.72,69.07,37.84s6.25,7.75,2.5,12l-1.75,3s.65,6.88-.75,8-7.5,2.75-10.75,1c-.9-.49-8-12.36-8.24-13.9s-10.37,0-10.79,0-1,9.53-.14,10,3.36,2,3.5,3.93-6.87,1.4-9,.84-3.37-15.28-3.37-15.28L16.43,36.3s-7.85,10.38-8,11.08S7.74,52,7.74,52s3.22,2.25,2.38,5.61C10.12,57.61.73,59.72,1,55.79Z"/><path class="cls-1" d="M57.51,35.32s8.29-14.65,9.56-13.73,2,16.33,1.25,16.75"/><path class="cls-3" d="M69.73,56.06s-5.24,5.53-4.68,5.67a22,22,0,0,0,4-.83Z"/><line class="cls-1" x1="63.96" y1="48.64" x2="66.35" y2="46.96"/></g></g></svg>