<svg xmlns="http://www.w3.org/2000/svg" viewBox="0 0 73.5 49.91"><defs><style>.cls-1{fill:#fec544;}.cls-1,.cls-2,.cls-4{stroke:#283328;stroke-linecap:round;stroke-linejoin:round;stroke-width:2px;}.cls-2{fill:#fff;}.cls-3{fill:#283328;}.cls-4{fill:none;}</style></defs><g id="레이어_2" data-name="레이어 2"><g id="레이어_1-2" data-name="레이어 1"><path class="cls-1" d="M56.52,24.77A6.55,6.55,0,0,1,60,24.12a16.06,16.06,0,0,0,3.43.26c1-.21,1.64-1.65,2.44-2.22a4.49,4.49,0,0,1,3.38-.7c2.65.4,3.25,2.87,3.2,5.22a9.53,9.53,0,0,1-7.71,8.86,7.2,7.2,0,0,1-4.3-.46"/><path class="cls-1" d="M51.52,31.8c-.5,2.25-3,13-3,13s-41.71,1.11-44-.28-6.59-4.47-.14-14.72S33,23.42,33,23.42l2.26-.62"/><path class="cls-1" d="M9.15,33.31s4.32-3.15,9.23,1.17.81,9.3.81,9.31c.36-.44,2.38-.13,2.82,0a2.93,2.93,0,0,1,2.12,3.67c-.44,1.46-2.17,1.47-3.44,1.47H2.19s-2.85-3.44,1-6"/><path class="cls-2" d="M59.71,31.83c.32,2.26,1.41,5.58,4.32,4.85a.82.82,0,0,0,.21-.1,11.42,11.42,0,0,0,2.61.3c.8,1.54,2.46,2.35,4,.92a1.93,1.93,0,0,0-.08-3.06,3.48,3.48,0,0,0-.53-4.67A3,3,0,0,0,67,29.79a2.15,2.15,0,0,0-1.16,1.74A31.52,31.52,0,0,1,61,30.84,1,1,0,0,0,59.71,31.83Z"/><path class="cls-1" d="M60,16.81S59,5.48,58.26,5s-1.8-.94-2.75.86S52,13.74,52,13.74"/><path class="cls-1" d="M34.89,22.59s4.77-20.38,6-21.09,1.59-.86,2.54.9S45.77,13,45.77,13a14,14,0,0,1,9.35.58c5.22,2.13,7,4.52,7.56,6.82l-.41,5.92s2.44,5.48,2.33,6.25-2.09,5.94-3.37,6.15a19.3,19.3,0,0,1-11.73-1"/><path class="cls-3" d="M61.05,31.31s-5.25-1-5.09-.21,2.1,3.33,3.15,3.15S62.69,31.42,61.05,31.31Z"/><line class="cls-1" x1="48.64" y1="24.17" x2="48.66" y2="22.29"/><line class="cls-1" x1="60.28" y1="23.99" x2="60.06" y2="25.82"/><path class="cls-1" d="M37.34,42.23c2.26,4.16,4.26,3.47,4.26,3.47,3.94,0,22.34-.38,22.34-.38s1.43-4.27,1.24-6.6-9.68-.85-9.68-.85l-9-.16"/><path class="cls-2" d="M52.3,36.22a5.34,5.34,0,0,0-.95-1.12c-1.7-1.7-3.48-1.1-5.14.24-1.59-.68-3.39-.24-3.65,1.83a1.92,1.92,0,0,0,2,2.3A3.48,3.48,0,0,0,48,42.74a3,3,0,0,0,2.7-1.87,2.14,2.14,0,0,0-.21-2.08c.56-.37,1.84-.95,2-1.71A1.17,1.17,0,0,0,52.3,36.22Z"/><path class="cls-4" d="M51.2,34.77c-.84-1.18-2.44-1.21-3.75-1.38a2.54,2.54,0,0,1-2.41-2"/></g></g></svg>