<svg xmlns="http://www.w3.org/2000/svg" viewBox="0 0 80.67 61.73"><defs><style>.cls-1{fill:#fec544;}.cls-1,.cls-3,.cls-4{stroke:#283328;stroke-linecap:round;stroke-linejoin:round;stroke-width:2px;}.cls-2{fill:#283328;}.cls-3{fill:#b5f0ff;}.cls-4{fill:#fff;}</style></defs><g id="레이어_2" data-name="레이어 2"><g id="레이어_1-2" data-name="레이어 1"><path class="cls-1" d="M59.88,3.4S44.38.79,44.17,1.85,43.74,9,53.64,11.53"/><path class="cls-1" d="M19.65,35.72A64.37,64.37,0,0,0,11.53,21C9,17.65,3.32,20.93,5.84,24.36A58.64,58.64,0,0,1,13.3,37.47C14.82,41.39,21.2,39.69,19.65,35.72Z"/><path class="cls-1" d="M46.67,22.68S49.41,9.62,52.15,7.73s8-6,9.26-6,5.27,2.52,6.32,2.52S73.66-2,76.38,2.8c3.41,6,2.53,10.2-.19,13.22C75,17.36,66.25,23.1,66.25,23.1,63.31,34,57.73,52.05,44.53,53.18a46.23,46.23,0,0,1-18.16-2.63c-4.57-1.56-9.51-5-11.55-9.48-2.49-5.42,2.34-10.94,8.06-11.44C30,29,43.3,29.84,46.67,22.68Z"/><path class="cls-1" d="M55.35,6.76S39.85,4.14,39.64,5.2s0,7.93,9.93,10.46"/><line class="cls-1" x1="61.39" y1="8.94" x2="63.9" y2="10.45"/><path class="cls-2" d="M70.21,2.59c1.13,0,7.57,3,7.57,3s-2.27-7.58-6.44-3"/><path class="cls-3" d="M72.37,19.06a4.54,4.54,0,0,0-3.91,2.31,4.58,4.58,0,0,0-1.23-.19h-.6a4.54,4.54,0,1,0,0,9.07h.6A4.58,4.58,0,0,0,71,28.19a4.42,4.42,0,0,0,1.36.24,4.58,4.58,0,0,0,4.54-4.53v-.31A4.58,4.58,0,0,0,72.37,19.06Z"/><path class="cls-3" d="M55.67,22.49a4.69,4.69,0,0,0-3.21,1.14,4.63,4.63,0,0,0-.71-.69A4.75,4.75,0,0,0,52,21.49a5,5,0,0,0-5-5h-.67a5,5,0,0,0-4.67,3.32,4.88,4.88,0,0,0-2.41-.59,4.73,4.73,0,0,0-3.07,1,5.22,5.22,0,0,0-.68-1.79h0a2.61,2.61,0,0,0-.19-.27,5.42,5.42,0,0,0-1.76-1.74A5,5,0,0,0,31,15.77a5.34,5.34,0,0,0-2.69.75A4.52,4.52,0,0,0,24,13.82c-3.84,0-5.39,3.55-4.66,6.41a5,5,0,0,0-4-2.08H15a5,5,0,0,0-5,5,4.93,4.93,0,0,0,1.21,3.2,5,5,0,0,0-.88,2.8,5,5,0,0,0,5,5h1a5,5,0,0,0,4.81-3.7,4.39,4.39,0,0,0,.53,0,4.52,4.52,0,0,0,4.21-2.44,4.57,4.57,0,0,0,3.79,1.77,5.63,5.63,0,0,0,1.19-.13c.09.11.17.23.27.33a5,5,0,0,0,6.38.53h0l.09,0,.37,0a5.16,5.16,0,0,0,1.76-.36l.24,0h.33a4.94,4.94,0,0,0,2.47-.67A5,5,0,0,0,47,31.82h1.67a4.91,4.91,0,0,0,3.15-1.17,4.6,4.6,0,0,0,3.85,1.84C62.12,32.49,62.12,22.49,55.67,22.49Z"/><path class="cls-4" d="M7.37,30.49l6.45,23.09c0,4,3.61,7.15,8.06,7.15H62.45c4.45,0,8.06-3.2,8.06-7.15L77,30.49Z"/><path class="cls-4" d="M79.67,30.49A2.67,2.67,0,0,1,77,33.15H3.67A2.66,2.66,0,0,1,1,30.49H1a2.66,2.66,0,0,1,2.67-2.67H77a2.67,2.67,0,0,1,2.67,2.67Z"/><path class="cls-3" d="M46.74,24.53a11,11,0,0,0-1.09-.85,5.35,5.35,0,0,0-2.6-.69,4.76,4.76,0,0,0-3.54,1.46,5.53,5.53,0,0,0-.87,1.22,3.77,3.77,0,0,0-1.12-.59,5,5,0,0,0-3.12-.16,5,5,0,0,0-3,2.3l-.51,1.19a5,5,0,0,0,0,2.66v.09a5,5,0,0,0,.16,10h.3a4.93,4.93,0,0,0,4.79-6.35,4.86,4.86,0,0,0,2.15-.66,5,5,0,0,0,1.93-2l.27.21a5,5,0,0,0,.74.35,3,3,0,0,0,.32.11l.18.06a4.76,4.76,0,0,0,1.43.24,5.05,5.05,0,0,0,3.54-1.46C48.57,29.77,48.79,26.32,46.74,24.53Z"/></g></g></svg>