<svg xmlns="http://www.w3.org/2000/svg" viewBox="0 0 71.73 73.07"><defs><style>.cls-1{fill:#fec544;}.cls-1,.cls-2,.cls-3{stroke:#283328;stroke-linecap:round;stroke-linejoin:round;stroke-width:2px;}.cls-2{fill:#e9e9e9;}.cls-3{fill:none;}.cls-4{fill:#283328;}</style></defs><g id="레이어_2" data-name="레이어 2"><g id="레이어_1-2" data-name="레이어 1"><path class="cls-1" d="M15.44,37.31A64.58,64.58,0,0,0,7.32,22.63C4.83,19.24-.89,22.52,1.63,26A58.87,58.87,0,0,1,9.09,39.06C10.61,43,17,41.28,15.44,37.31Z"/><path class="cls-1" d="M50.51,46.61,48.82,64.29s3.79.21,3.16,5.27c0,0-14.42.52-13.9,0s4-23.59,4-23.59"/><path class="cls-1" d="M26,45.05,24.33,62.74S28.11,63,27.48,68c0,0-14.42.53-13.89,0s4-23.58,4-23.58"/><path class="cls-1" d="M57.17,38.09c-3.13,7-7.66,14.5-13.24,16.71V67.22s1.68.64,1.68,4.85H35.09V56.91s-10.53,1.26-16.22-3.79L16.14,66.38s2.31,1.06,2.31,5.06H7.92l.85-31.17s2.73-8.42,9.89-9.05,20.43.21,23.8-6.95"/><path class="cls-2" d="M62.92,54a6.9,6.9,0,0,1-9.3,2.92L38.23,44.47,17.36,38a6.89,6.89,0,0,1-2.92-9.3h0a6.89,6.89,0,0,1,9.29-2.92l16.5,14.93,19.77,4A6.89,6.89,0,0,1,62.92,54Z"/><path class="cls-3" d="M16.1,36.6c2.75,1.16,5.57-1.48,5.5-4.35-.06-2.59-2.57-3.68-4-1.25a3.46,3.46,0,0,0,0,3"/><line class="cls-3" x1="20.77" y1="30.31" x2="27.16" y2="33.65"/><line class="cls-3" x1="51.11" y1="46.64" x2="62.65" y2="52.66"/><path class="cls-1" d="M32.76,18.27S35.82,0,37.87,1.05s5.91,14.19,5.91,14.19S52.71,17.58,57.45,23c0,0,12.2-4.7,13.21-3.3S59.74,35.4,59.74,35.4s-4.94,6.13-10.58,7.76c0,0-2.74,3.69-5.16,4.05-3.19.48-12.79-4.53-13.18-6.87a18,18,0,0,1,.63-6.21S28.85,24.94,32.76,18.27Z"/><line class="cls-1" x1="38.12" y1="25.49" x2="36.73" y2="28.14"/><line class="cls-1" x1="51.87" y1="32.67" x2="50.49" y2="35.32"/><path class="cls-4" d="M42.81,40.8c-.49,1-2.75,1.17-3.92.56l-.54-.12c-1.18-.62-2.61-2.92-2.12-3.87h0a2.22,2.22,0,0,1,3-.6L41.58,38a2.2,2.2,0,0,1,1.23,2.82Z"/><line class="cls-1" x1="37.16" y1="44.3" x2="39.29" y2="40.21"/><path class="cls-1" d="M38.38,16.67a9.4,9.4,0,0,1,6.26-1"/><path class="cls-1" d="M59,27.51a9.39,9.39,0,0,0-2.78-5.7"/></g></g></svg>