<svg xmlns="http://www.w3.org/2000/svg" viewBox="0 0 93.23 40.12"><defs><style>.cls-1{fill:#2980ff;}.cls-1,.cls-2,.cls-3,.cls-4{stroke:#283328;stroke-linecap:round;stroke-linejoin:round;stroke-width:2px;}.cls-2{fill:#3b9eff;}.cls-3{fill:#fec544;}.cls-4{fill:none;}.cls-5{fill:#e6b000;}</style></defs><g id="레이어_2" data-name="레이어 2"><g id="레이어_1-2" data-name="레이어 1"><path class="cls-1" d="M91.69,29.91c0,7.59-20.12,9-44.94,9s-44.94-1.41-44.94-9c0-.71,7.47-4.78,7.8-5.5,3.21-6.91,14.11-10.25,36.6-10.25,22.29,0,36.47,3.16,40.09,10C86.72,24.94,91.69,29.14,91.69,29.91Z"/><path class="cls-2" d="M92.23,28.66c0,7.59-20.66,4-45.48,4S1,36.25,1,28.66,21.39,7.91,46.21,7.91,92.23,21.07,92.23,28.66Z"/><path class="cls-3" d="M59,4.66c1.87-1.79,9.5-4.75,10.25-3.25.4.81-2.71,7.44-4.25,8.5"/><path class="cls-3" d="M74.52,20.44a9.09,9.09,0,0,1,3.92.3,3.37,3.37,0,0,1,2.22,2.93c.5,2.76-3,2.72-4.87,2.74-3.24,0-6.48,0-9.71,0-1.81,0-3.63,0-5.44,0,0,0-3.74.8-3.74-4.2"/><path class="cls-3" d="M70,26.91c4.15-.51,4.27-.08,6-4.25,3-7.25-1.39-11.28-1.39-11.28-1.23-1.05-5.86-2.72-5.86-2.72C61,3.41,57.32,4.28,41.19,4S16.72,8.12,15,17.17A14.5,14.5,0,0,0,21.2,32.42H49.69s1-4.21-.61-5.08c-1.18-.66,7.66.32,12.41-.93C63.89,25.78,67.87,27.17,70,26.91Z"/><path class="cls-3" d="M26.49,10.16c1,0,16-2.75,15.5,15.25,0,0,9.5-.25,7.75,6.25"/><path class="cls-4" d="M73.25,16.67s1.43,1.43.5,5"/><line class="cls-4" x1="74.01" y1="19.29" x2="76.75" y2="17.55"/><path class="cls-3" d="M52.07,7.41s9,1.68,9.48,6.9c0,0,2.44,5.13,2.2,6.55S59,24.08,56.9,22.65s-2.5-5.41-2.5-5.41l-4.07-1.52"/><path class="cls-4" d="M25.69,29.7c-.15-1.4,2.3-2.44,3.36-2.51"/><path class="cls-5" d="M30.5,31.43c.24,0,15.3,0,15.54-.06s2.16-2.46-1.92-3.12-18.66,0-13.68,3"/><path class="cls-3" d="M15.41,24.41c2,11.25,12,16.5,20.91,14.16,3.11-.81,1.83-5.29-1.33-4.82-5.4.82-9-2.56-11.08-7.59"/></g></g></svg>