<svg xmlns="http://www.w3.org/2000/svg" viewBox="0 0 78.72 52.25"><defs><style>.cls-1{fill:#fec544;stroke:#283328;stroke-linecap:round;stroke-linejoin:round;stroke-width:2px;}.cls-2{fill:#283328;}</style></defs><g id="레이어_2" data-name="레이어 2"><g id="레이어_1-2" data-name="레이어 1"><path class="cls-1" d="M14.28,22.49c-3.53-.63-2.47-6-.56-7.83,2.31-2.25-1.23-5.79-3.53-3.53C5.74,15.48,5.48,26,13,27.31,16.11,27.86,17.45,23.05,14.28,22.49Z"/><path class="cls-1" d="M46.24,24.06c-.7,0-28.67-2.07-31.09-1.72S9.28,24.58,5,32.35c0,0-3.8,11.4-3.63,12.09S.65,51,1.17,51.17s10.19,0,10.19,0a9.12,9.12,0,0,0-.7-3.45c-.69-1.38-4-.86-3.45-1s9.3-3.22,13.82-6.22c.51-.35,9.84,10.7,22.62,9.32S54,32,51.59,28.73"/><path class="cls-1" d="M44.43,24.06c-.28-3.87-.41-5.09-.58-7a11.11,11.11,0,0,1,5.47-9C51.54,6.73,53.78,5.46,56,4.21A12.83,12.83,0,0,1,59,3c.92-.25,6.79,1.4,7.78,1.14,1.76-.45,5.55-2.62,7-1.69s5.3,9.45,2.42,12.33-11.87,9.7-11.87,9.7.2,2.77.58,6.71c0,0,2,13.71-13.62,18.38a25.36,25.36,0,0,1-16.34-.6"/><path class="cls-1" d="M64,10.57,62.1,7.64Z"/><path class="cls-1" d="M51.32,43.85c.87.69,16.73,6.84,17.94,6.84l8.37,0s.65-5.16-1.42-5.68a11.12,11.12,0,0,0-4.71.19L60.17,37.24"/><path class="cls-1" d="M44.34,18.68S35.74,1.34,39.45,1s9.87,7,9.87,7"/><path class="cls-2" d="M76.86,6.22s-7.81-2-6.47-3.39S75,3.28,76.86,6.22Z"/></g></g></svg>